<svg width="17" height="17" viewBox="0 0 17 17" fill="none" xmlns="http://www.w3.org/2000/svg">
<path d="M14.7107 11.3831C14.7107 13.2207 13.2206 14.7103 11.383 14.7103H4.9176C3.07998 14.7103 1.58991 13.2207 1.58991 11.3831V4.91747C1.58991 3.08032 3.07998 1.59029 4.9176 1.59029H11.383C13.2206 1.59029 14.7107 3.08032 14.7107 4.91747V11.3831ZM16.3006 4.84459C16.3006 2.16911 14.1318 0 11.4559 0H4.84472C2.16875 0 0 2.16911 0 4.84459V11.456C0 14.1315 2.16875 16.3006 4.84472 16.3006H11.4559C14.1318 16.3006 16.3006 14.1315 16.3006 11.456V4.84459ZM13.4106 3.79647C13.4106 4.31885 12.9872 4.74222 12.4652 4.74222C11.9429 4.74222 11.5195 4.31885 11.5195 3.79647C11.5195 3.2741 11.9429 2.85115 12.4652 2.85115C12.9872 2.85115 13.4106 3.2741 13.4106 3.79647Z" fill="#F2F2FF"/>
<path d="M0.814941 7.74316H15.4855V5.81542C15.4855 3.05399 13.2469 0.815418 10.4855 0.815418H5.81494C3.05351 0.815418 0.814941 3.05399 0.814941 5.81542V7.74316Z" fill="#F2F2FF"/>
<path d="M8.15034 12.2256C5.8997 12.2256 4.0752 10.5955 4.0752 7.74293H12.2255C12.2255 11.003 10.401 12.2256 8.15034 12.2256Z" fill="#F2F2FF"/>
<path d="M8.15041 5.70508C6.80002 5.70508 5.70532 6.79978 5.70532 8.15016H10.5955C10.5955 6.79978 9.50079 5.70508 8.15041 5.70508Z" fill="#222222"/>
<path d="M8.15041 10.5957C6.80002 10.5957 5.70532 9.54781 5.70532 8.15062H10.5955C10.5955 9.89711 9.50079 10.5957 8.15041 10.5957Z" fill="#222222"/>
<circle cx="12.6329" cy="3.66786" r="1.22254" fill="#222222"/>
</svg>
