<svg width="129" height="19" viewBox="0 0 129 19" fill="none" xmlns="http://www.w3.org/2000/svg">
<path d="M9.10547 0.882812L6.82031 5.55859L1.65234 6.29688C0.738281 6.4375 0.386719 7.5625 1.05469 8.23047L4.74609 11.8516L3.86719 16.9492C3.72656 17.8633 4.71094 18.5664 5.51953 18.1445L10.125 15.7188L14.6953 18.1445C15.5039 18.5664 16.4883 17.8633 16.3477 16.9492L15.4688 11.8516L19.1602 8.23047C19.8281 7.5625 19.4766 6.4375 18.5625 6.29688L13.4297 5.55859L11.1094 0.882812C10.7227 0.0742188 9.52734 0.0390625 9.10547 0.882812ZM36.3867 0.882812L34.1016 5.55859L28.9336 6.29688C28.0195 6.4375 27.668 7.5625 28.3359 8.23047L32.0273 11.8516L31.1484 16.9492C31.0078 17.8633 31.9922 18.5664 32.8008 18.1445L37.4062 15.7188L41.9766 18.1445C42.7852 18.5664 43.7695 17.8633 43.6289 16.9492L42.75 11.8516L46.4414 8.23047C47.1094 7.5625 46.7578 6.4375 45.8438 6.29688L40.7109 5.55859L38.3906 0.882812C38.0039 0.0742188 36.8086 0.0390625 36.3867 0.882812ZM63.668 0.882812L61.3828 5.55859L56.2148 6.29688C55.3008 6.4375 54.9492 7.5625 55.6172 8.23047L59.3086 11.8516L58.4297 16.9492C58.2891 17.8633 59.2734 18.5664 60.082 18.1445L64.6875 15.7188L69.2578 18.1445C70.0664 18.5664 71.0508 17.8633 70.9102 16.9492L70.0312 11.8516L73.7227 8.23047C74.3906 7.5625 74.0391 6.4375 73.125 6.29688L67.9922 5.55859L65.6719 0.882812C65.2852 0.0742188 64.0898 0.0390625 63.668 0.882812ZM90.9492 0.882812L88.6641 5.55859L83.4961 6.29688C82.582 6.4375 82.2305 7.5625 82.8984 8.23047L86.5898 11.8516L85.7109 16.9492C85.5703 17.8633 86.5547 18.5664 87.3633 18.1445L91.9688 15.7188L96.5391 18.1445C97.3477 18.5664 98.332 17.8633 98.1914 16.9492L97.3125 11.8516L101.004 8.23047C101.672 7.5625 101.32 6.4375 100.406 6.29688L95.2734 5.55859L92.9531 0.882812C92.5664 0.0742188 91.3711 0.0390625 90.9492 0.882812ZM118.23 0.882812L115.945 5.55859L110.777 6.29688C109.863 6.4375 109.512 7.5625 110.18 8.23047L113.871 11.8516L112.992 16.9492C112.852 17.8633 113.836 18.5664 114.645 18.1445L119.25 15.7188L123.82 18.1445C124.629 18.5664 125.613 17.8633 125.473 16.9492L124.594 11.8516L128.285 8.23047C128.953 7.5625 128.602 6.4375 127.688 6.29688L122.555 5.55859L120.234 0.882812C119.848 0.0742188 118.652 0.0390625 118.23 0.882812Z" fill="#FFDF6B"/>
</svg>
