<svg width="1439" height="903" viewBox="0 0 1439 903" fill="none" xmlns="http://www.w3.org/2000/svg">
<g clip-path="url(#clip0)">
<path fill-rule="evenodd" clip-rule="evenodd" d="M737.989 873.696C736.645 872.521 735.392 871.147 734.145 869.868C733.058 868.606 731.891 867.415 730.653 866.301C708.488 846.055 684.872 834.937 664.301 834.937C643.933 834.937 626.71 845.24 613.124 865.534C605.576 876.955 599.898 889.506 596.305 902.716H597.003C600.602 889.654 606.211 877.232 613.628 865.894C627.157 845.852 644.185 835.601 664.301 835.601C684.721 835.601 708.135 846.719 730.253 866.761C731.399 867.832 732.498 869.054 733.694 870.328C734.942 871.654 736.24 872.981 737.539 874.255C747.475 883.133 758.157 891.289 768.494 899.196C770.043 900.365 771.541 901.489 773.085 902.716H774.184C772.435 901.337 770.641 900.01 768.842 898.632C758.51 890.731 747.877 882.569 737.989 873.696ZM1395.71 807.96C1381.33 821.626 1366.45 835.804 1356.91 856.05C1352.12 866.353 1347.37 882.621 1345.18 902.712H1345.87C1348.02 882.716 1352.77 866.554 1357.51 856.303C1366.95 836.26 1381.77 822.134 1396.15 808.467C1412.88 792.559 1430.15 776.188 1438.69 750.281C1438.99 749.516 1439.24 748.733 1439.44 747.935V745.638C1439.04 747.168 1438.54 748.651 1438.09 750.024C1429.56 775.78 1412.33 792.152 1395.71 807.96H1395.71ZM669.19 866.453C662.156 866.453 655.316 868.955 649.023 873.848C643.133 878.384 640.239 883.028 637.186 887.822C635.94 889.863 634.594 891.952 633.046 894.094C631.859 896.904 630.842 899.783 630.001 902.716H630.699C631.549 899.907 632.499 897.154 633.593 894.501C635.09 892.47 636.474 890.359 637.741 888.177C640.736 883.383 643.63 878.897 649.369 874.412C655.669 869.565 662.256 867.116 669.19 867.116C687.716 867.116 705.493 883.947 721.165 898.736C722.611 900.11 723.961 901.389 725.357 902.716H726.359C724.809 901.232 723.263 899.807 721.666 898.277C705.889 883.336 687.968 866.453 669.19 866.453ZM1427.31 688.575C1423.96 706.221 1420.86 722.895 1416.07 734.676C1407.99 754.767 1391.16 771.65 1373.39 789.551C1362.4 800.512 1351.12 811.834 1341.59 824.332C1329.66 839.886 1321.66 853.346 1314.98 869.258C1311.03 878.642 1307.63 889.452 1304.34 899.906C1304.04 900.825 1303.69 901.797 1303.44 902.715H1304.14C1304.39 901.851 1304.69 900.981 1304.99 900.109C1308.23 889.66 1311.63 878.844 1315.58 869.512C1322.26 853.652 1330.2 840.242 1342.13 824.736C1351.67 812.344 1362.95 800.973 1373.84 790.057C1391.71 772.054 1408.58 755.126 1416.72 734.931C1421.51 723.098 1424.66 706.371 1427.96 688.673C1431.15 671.638 1434.45 653.998 1439.34 641.147C1439.39 641.052 1439.43 640.947 1439.44 640.838V639.053C1439.22 639.678 1438.97 640.291 1438.69 640.891C1433.75 653.843 1430.45 671.489 1427.31 688.575ZM1372.79 468.67C1349.57 459.186 1320.72 447.457 1309.68 423.435C1308.93 410.329 1313.43 399.163 1318.22 387.381C1324.96 370.859 1332.6 352.142 1328.3 322.867C1325.01 300.636 1312.23 286.353 1297.4 269.83C1291.26 263 1285.02 255.96 1279.03 247.955C1263.4 226.94 1252.72 203.227 1244.43 182.775C1236.09 162.432 1229.56 146.367 1207.68 141.009C1194.61 137.798 1176.33 135.551 1163.8 134.226C1157.44 133.491 1151.04 133.102 1144.63 133.059C1134.99 133.059 1126.71 134.125 1119.72 136.213C1104.89 140.707 1095.45 153.049 1083.57 168.654C1080.03 173.291 1076.39 178.036 1072.24 183.085C1069.44 186.552 1065.75 190.328 1061.8 194.406C1053.61 202.819 1045.18 211.54 1042.83 218.53C1041.98 221.23 1042.24 223.679 1042.43 226.483C1042.72 228.905 1042.77 231.347 1042.58 233.778L1042.53 233.93L1042.63 234.031C1050.57 244.736 1060.21 253.306 1069.54 261.672C1085.37 275.845 1100.4 289.208 1106.04 311.189C1109.03 322.766 1107.93 335.159 1102.74 349.081C1097.2 363.765 1084.32 379.933 1066.35 394.519C1058.26 401.098 1049.67 407.929 1040.59 415.225C998.9 448.421 951.619 486.058 925.806 518.853L925.761 519.057C924.912 523.083 925.208 527.673 926.358 532.723C929.702 546.494 940.238 562.861 955.315 577.65C969.691 591.677 986.02 602.184 999.051 605.855C1000.1 606.158 1002.15 606.719 1004.34 607.181C1021.71 611.155 1039.74 608.405 1057.11 605.75C1072.14 603.458 1086.42 601.264 1100.25 603.097C1130.15 607.13 1151.67 627.581 1159.26 659.199C1169.25 700.71 1141.63 726.769 1114.93 752.013C1095.25 770.677 1074.84 789.905 1069.5 815.3C1064.4 839.218 1071.04 865.026 1075.44 882.107C1077.18 888.995 1079.33 895.878 1081.63 902.714H1082.33C1079.98 895.826 1077.89 888.888 1076.09 881.903C1071.74 864.921 1065.1 839.218 1070.15 815.456C1075.44 790.259 1095.76 771.084 1115.43 752.524C1142.23 727.176 1169.99 700.965 1159.91 659.042C1152.27 627.171 1130.46 606.517 1100.3 602.485C1086.42 600.653 1072.15 602.794 1057.02 605.086C1039.69 607.739 1021.77 610.444 1004.49 606.517C1002.35 606.058 1000.25 605.494 999.201 605.191C973.338 597.947 934.198 562.249 927.057 532.618C925.854 528.27 925.615 523.711 926.36 519.261C952.172 486.518 999.349 448.882 1040.99 415.737C1050.12 408.494 1058.71 401.658 1066.8 395.083C1084.82 380.393 1097.8 364.178 1103.34 349.285C1108.58 335.259 1109.68 322.767 1106.69 311.038C1100.95 288.855 1085.92 275.339 1070 261.109C1060.71 252.848 1051.17 244.283 1043.23 233.724C1043.41 231.296 1043.37 228.857 1043.14 226.434C1042.83 223.677 1042.63 221.332 1043.48 218.784C1045.78 211.948 1054.12 203.23 1062.31 194.866C1066.2 190.833 1069.95 187.012 1072.74 183.544C1076.88 178.548 1080.58 173.751 1084.12 169.057C1095.96 153.56 1105.29 141.319 1119.92 136.876C1131.05 133.513 1145.38 132.851 1163.71 134.888C1176.29 136.271 1194.51 138.51 1207.54 141.672C1229.06 146.871 1235.59 162.835 1243.83 183.033C1252.17 203.535 1262.8 227.301 1278.48 248.417C1284.47 256.423 1290.76 263.457 1296.86 270.293C1311.63 286.716 1324.36 300.942 1327.61 322.974C1331.9 352.04 1324.31 370.658 1317.62 387.129C1312.83 399.01 1308.24 410.231 1308.99 423.542L1309.03 423.694C1320.22 447.92 1349.23 459.8 1372.54 469.237C1378.88 471.837 1385.42 474.493 1392.56 476.067C1407.97 479.505 1423.66 481.587 1439.44 482.289V481.573C1423.71 480.913 1408.07 478.847 1392.71 475.401C1385.62 473.871 1379.08 471.223 1372.79 468.67ZM1034.15 882.876C1032.35 875.837 1030.25 868.797 1028.21 861.914C1023.81 846.77 1019.67 832.441 1018.02 819.635C1016.77 810.507 1016.77 801.076 1017.97 794.496C1021.42 774.709 1034.44 759.309 1047.03 744.363C1061.46 727.282 1076.39 709.531 1077.53 684.903C1075.98 662.971 1051.77 659.759 1026.16 656.443C1021.46 655.78 1016.57 655.168 1011.88 654.406C993.11 651.346 971.49 645.225 949.375 636.763C941.635 633.755 934.196 630.032 926.957 626.408C913.179 619.423 900.147 612.794 884.918 611.06C882.945 610.853 880.962 610.75 878.977 610.751C868.645 610.751 859.658 613.712 851.969 616.516C844.183 619.321 837.491 622.329 831.003 625.337C817.072 631.609 803.944 637.525 783.673 639.364C780.041 639.754 776.39 639.941 772.738 639.922C750.719 639.922 732.3 634.005 714.428 628.298C699.049 623.3 684.425 618.658 669.298 618.658C666.341 618.636 663.387 618.823 660.456 619.217C637.488 622.178 619.82 634.314 606.536 656.398C594.8 675.877 588.068 700.51 582.423 724.224C580.774 731.159 577.88 744.162 576.886 753.599C575.885 762.471 577.232 768.946 581.076 773.438C588.017 781.647 601.942 782.159 618.07 782.666C625.414 782.921 632.945 783.177 640.484 784.195C672.243 788.378 698.847 792.561 728.307 805.157C752.57 815.46 776.834 828.359 792.957 837.284C820.016 852.431 850.671 871.147 872.288 902.716H873.085C851.368 870.839 820.566 851.867 793.256 836.671C777.178 827.694 752.915 814.842 728.6 804.492C699.096 791.948 672.384 787.713 640.582 783.483C633.043 782.511 625.454 782.259 618.118 781.953C602.141 781.441 588.31 780.981 581.52 772.976C577.877 768.642 576.53 762.319 577.524 753.649C578.575 744.264 581.419 731.308 583.068 724.373C594.25 677.201 610.327 626.306 660.554 619.878C663.455 619.53 666.374 619.362 669.295 619.374C684.314 619.374 698.844 624.011 714.274 628.962C732.148 634.669 750.619 640.586 772.738 640.586C776.383 640.586 780.082 640.435 783.719 640.082C804.095 638.244 817.271 632.228 831.248 625.904C837.741 622.995 844.428 619.935 852.168 617.131C859.806 614.378 868.794 611.47 878.977 611.47C880.929 611.469 882.88 611.571 884.821 611.778C899.897 613.46 912.877 620.039 926.653 626.972C933.892 630.644 941.336 634.418 949.122 637.374C971.288 645.889 992.96 652.01 1011.73 655.071C1016.47 655.834 1021.37 656.497 1026.06 657.061C1051.37 660.424 1075.33 663.588 1076.88 684.952C1075.73 709.23 1060.85 726.876 1046.53 743.958C1033.84 758.899 1020.81 774.455 1017.27 794.346C1016.07 801.026 1016.17 810.51 1017.32 819.742C1019.02 832.646 1023.21 846.923 1027.61 862.068C1029.6 868.955 1031.65 876.094 1033.55 883.081C1034.74 887.618 1035.99 892.262 1037.29 896.748C1037.84 898.686 1038.34 900.727 1038.94 902.717H1039.64C1039.04 900.623 1038.44 898.587 1037.94 896.544C1036.64 892.055 1035.39 887.467 1034.15 882.876ZM1392.91 857.377C1386.12 868.134 1380.03 881.09 1379.93 902.716H1380.58C1380.73 881.294 1386.72 868.39 1393.46 857.732C1402.05 844.217 1414.43 836.112 1427.61 827.488C1431.55 824.888 1435.54 822.287 1439.44 819.483V818.667C1435.44 821.524 1431.3 824.224 1427.25 826.877C1414.08 835.548 1401.6 843.71 1392.91 857.377ZM990.411 841.569C986.367 832.284 982.124 822.801 980.728 812.858C976.781 785.624 990.559 767.924 1003.84 750.74C1012.98 739.063 1021.51 728.044 1024.16 714.479C1024.69 711.773 1024.8 709.005 1024.51 706.264C1024.41 704.839 1024.31 703.312 1024.31 701.22V701.115C1020.92 691.476 1010.78 684.692 1002.84 680.717C974.188 666.231 927.504 659.402 893.456 654.403C888.313 653.668 883.125 653.293 877.93 653.28C864.699 653.28 852.419 655.573 839.438 657.969C825.558 660.524 811.183 663.226 794.603 663.226C790.211 663.226 785.718 663.022 781.378 662.667C780.478 662.563 777.978 662.412 774.783 662.208C770.09 661.952 764.199 661.644 760.059 661.288C746.179 660.218 735.193 657.717 724.611 655.273C710.432 652.056 697.155 649.001 677.427 649.001C675.382 649.001 673.237 649.048 671.091 649.1C655.417 651.602 641.031 668.479 635.292 691.123C630.555 709.839 631.649 734.728 648.922 748.493C669.241 764.662 728.455 778.84 760.259 781.441C767.048 782.051 772.687 782.104 778.131 782.104C784.22 782.156 790.463 782.203 798.651 782.918C820.572 784.961 838.69 793.78 859.314 812.442C884.824 835.598 898.653 853.499 918.426 888.942C920.807 893.355 922.809 897.963 924.411 902.716H925.162C923.501 897.855 921.43 893.145 918.97 888.636C899.197 853.097 885.368 835.193 859.709 811.939C839.04 793.17 820.768 784.297 798.699 782.256C790.514 781.493 784.22 781.441 778.131 781.441C772.436 781.389 767.099 781.337 760.305 780.778C728.603 778.125 669.593 764.051 649.275 747.935C632.297 734.421 631.297 709.788 635.941 691.275C641.585 668.94 655.812 652.266 671.192 649.764C673.287 649.712 675.382 649.665 677.427 649.665C697.004 649.665 710.381 652.772 724.462 655.937C735.096 658.381 746.077 660.882 760.008 661.952C764.15 662.261 770.043 662.668 774.737 662.924C777.932 663.076 780.425 663.227 781.327 663.279C785.739 663.713 790.17 663.917 794.603 663.89C811.229 663.89 825.661 661.237 839.536 658.633C852.521 656.237 864.75 653.997 877.93 653.997C883.092 653.964 888.25 654.322 893.359 655.067C927.356 660.064 973.985 666.848 1002.54 681.329C1010.33 685.204 1020.32 691.883 1023.61 701.32C1023.66 703.361 1023.76 704.892 1023.81 706.317C1024.18 709 1024.08 711.726 1023.51 714.375C1020.87 727.686 1012.38 738.7 1003.34 750.33C989.915 767.568 976.081 785.418 980.079 812.954C981.525 822.949 985.718 832.59 989.813 841.817C991.408 845.441 993.11 849.212 994.557 852.987C999.8 866.301 1005.94 884.206 1009.83 902.716H1010.48C1006.53 884.098 1000.39 866.045 995.154 852.682C993.709 848.964 992.057 845.188 990.411 841.569ZM1370.24 566.538C1361 577.04 1352.82 588.263 1344.13 600.091C1330.35 618.86 1316.12 638.239 1297.75 654.25C1296.45 655.474 1295.16 656.804 1293.95 658.13C1292.85 659.354 1291.66 660.574 1290.46 661.697C1278.48 672.512 1264.75 681.18 1251.52 689.489C1242.33 695.306 1232.8 701.27 1223.86 708.002C1216.77 713.36 1209.63 718.968 1202.79 724.373C1192.36 732.635 1181.57 741.1 1170.69 748.751C1165.55 752.369 1160.2 755.842 1154.51 759.513C1126.76 777.613 1095.3 798.115 1090.51 835.195C1087.96 854.782 1093.01 880.022 1103.74 902.718H1104.44C1093.7 880.074 1088.66 854.831 1091.16 835.245C1095.95 798.476 1127.25 778.069 1154.91 760.124C1160.55 756.451 1165.89 752.933 1171.04 749.36C1181.97 741.663 1192.75 733.146 1203.14 724.936C1210.03 719.526 1217.12 713.919 1224.31 708.565C1233.19 701.886 1242.68 695.865 1251.87 690.104C1265.15 681.687 1278.88 673.018 1290.86 662.208C1292.16 661.085 1293.31 659.76 1294.46 658.584C1295.63 657.253 1296.88 655.994 1298.2 654.813C1316.62 638.75 1330.9 619.318 1344.63 600.55C1353.32 588.67 1361.56 577.5 1370.74 567.045C1388.69 546.513 1412.78 532.313 1439.44 526.552V525.842C1412.61 531.66 1388.36 545.923 1370.24 566.538ZM1411.18 592.952C1402.24 606.264 1402.19 630.437 1403.14 650.02C1403.89 665.827 1403.64 696.017 1393.51 721.11C1385.67 740.285 1367.1 757.372 1349.12 773.79C1346.38 776.339 1343.68 778.84 1341.03 781.337C1305.03 814.842 1287.16 844.985 1271.44 879.817C1270.09 882.769 1268.94 885.937 1267.79 888.997C1266.42 892.903 1264.83 896.732 1263.05 900.47C1262.7 901.233 1262.3 902.001 1261.95 902.716H1262.7C1263 902.052 1263.35 901.436 1263.7 900.825C1265.46 897.048 1267.03 893.183 1268.39 889.246C1269.55 886.186 1270.69 883.079 1272.09 880.118C1287.77 845.286 1305.54 815.248 1341.49 781.795C1344.13 779.298 1346.88 776.849 1349.57 774.348C1367.59 757.829 1386.27 740.744 1394.11 721.365C1404.29 696.173 1404.54 665.827 1403.79 650.02C1402.84 630.489 1402.94 606.467 1411.73 593.307C1418.12 583.876 1428.3 577.145 1439.44 571.379V570.617C1428.1 576.481 1417.72 583.265 1411.18 592.952H1411.18ZM1429.5 884C1425.16 888.584 1423.31 895.729 1423.31 902.716H1424.06C1424.06 895.828 1425.91 888.793 1429.95 884.454C1432.8 881.445 1436.04 879.813 1439.44 879.813V879.15C1435.9 879.153 1432.45 880.835 1429.5 884ZM1224.41 891.9C1233.9 880.48 1240.84 864.87 1247.53 849.775C1248.57 847.477 1249.57 845.238 1250.57 842.939C1260.36 821.418 1272.49 794.593 1285.77 776.288C1292.96 766.288 1304.84 759.103 1317.42 751.499C1335.24 740.741 1353.67 729.571 1360.86 709.069C1363.45 701.674 1363.5 693.57 1360.96 683.418C1358.46 677.756 1354.12 674.9 1348.13 674.9C1338.24 674.9 1326.56 682.707 1321.77 686.885C1312.23 695.099 1303.84 706.468 1295.81 717.539C1291.46 723.404 1287.02 729.571 1282.42 735.182C1280.18 737.788 1272.49 746.759 1266.05 750.634C1250.77 759.815 1231.2 766.854 1210.48 774.301C1181.67 784.598 1151.97 795.256 1133.45 812.601C1123.56 821.674 1117.72 835.954 1117.22 851.662C1116.77 868.493 1122.46 884.453 1133.4 896.693C1135.33 898.864 1137.43 900.878 1139.69 902.716H1140.79C1138.32 900.725 1136.02 898.543 1133.9 896.188C1123.04 883.976 1117.32 868.045 1117.92 851.716C1118.32 836.211 1124.16 822.084 1133.85 813.108C1152.32 795.922 1182.03 785.264 1210.68 774.967C1231.45 767.521 1251.02 760.481 1266.35 751.254C1272.99 747.221 1280.68 738.245 1282.87 735.597C1287.57 730.035 1292.01 723.86 1296.35 717.899C1304.39 706.932 1312.68 695.611 1322.17 687.454C1326.91 683.323 1338.44 675.572 1348.13 675.572C1353.87 675.572 1357.96 678.277 1360.35 683.682C1362.8 693.578 1362.75 701.584 1360.21 708.874C1353.12 729.12 1334.79 740.186 1317.07 750.896C1304.44 758.547 1292.51 765.79 1285.17 775.937C1271.94 794.245 1259.81 821.124 1249.97 842.644C1248.97 844.937 1247.98 847.235 1246.93 849.527C1240.24 864.568 1233.3 880.072 1223.86 891.441C1220.31 895.733 1216.2 899.525 1211.63 902.716H1212.78C1217.09 899.608 1221 895.975 1224.41 891.9ZM960.406 717.438L960.355 717.333C959.159 716.06 958.459 714.279 957.809 712.545L957.661 712.185L957.559 711.981C952.666 707.339 945.381 704.738 936.992 704.738C925.06 704.738 913.232 709.892 907.437 717.49C905.755 719.618 904.583 722.103 904.011 724.755C903.44 727.407 903.484 730.154 904.141 732.786C906.687 742.886 916.124 746.202 926.409 748.902L926.456 748.954L926.504 748.9C943.978 746.299 962.05 735.39 960.404 717.541V717.436L960.406 717.438ZM926.504 748.239C916.424 745.539 907.28 742.374 904.786 732.635C904.151 730.098 904.108 727.449 904.662 724.893C905.216 722.337 906.352 719.943 907.982 717.898C913.626 710.451 925.308 705.401 936.989 705.401C945.179 705.401 952.316 707.955 957.061 712.493L957.158 712.749C957.858 714.529 958.558 716.368 959.755 717.746C961.455 737.58 938.792 746.353 926.504 748.239ZM779.524 705.709L779.274 705.25L779.177 705.198C768.441 698.314 750.67 693.724 734.991 693.724C724.659 693.724 706.634 695.813 701.943 710.044V710.096C701.881 712.527 702.319 714.945 703.231 717.199C704.143 719.454 705.508 721.497 707.242 723.202C714.025 730.34 727.555 734.723 742.483 734.723C761.404 734.723 781.823 727.277 782.124 710.753V710.649L781.976 710.549C780.855 709.109 780.024 707.465 779.527 705.709H779.524ZM742.48 734.066C727.751 734.066 714.375 729.679 707.678 722.744C706.043 721.093 704.751 719.133 703.877 716.979C703.003 714.825 702.565 712.52 702.588 710.195C707.182 696.429 724.908 694.388 734.988 694.388C750.514 694.388 768.036 698.924 778.775 705.709L778.872 706.017C779.573 707.751 780.222 709.584 781.418 710.914C781.076 726.822 761.005 734.066 742.483 734.066H742.48ZM1255.02 380.039C1258.81 363.464 1262.76 346.226 1261.16 320.522C1248.52 275.797 1233.6 242.038 1215.68 217.201C1211.48 211.436 1206.34 204.862 1199.85 199.559C1190.56 191.96 1177.33 187.474 1164.6 187.474C1151.77 187.474 1140.79 191.96 1133.7 200.274C1125.81 209.402 1122.91 222.557 1125.06 239.335C1126.31 248.72 1129.66 258.616 1132.95 268.204C1136.25 277.74 1139.64 287.583 1140.84 296.962C1145.68 333.429 1130.4 371.217 1100.15 397.992C1087.32 409.418 1074.04 418.646 1061.3 427.571C1047.47 437.31 1033.2 447.357 1019.67 459.903C999.097 478.922 975.836 500.547 971.991 533.137V533.288C974.435 548.694 979.128 564.553 996.306 575.875C1006.04 582.35 1016.82 585.358 1030.2 585.358C1041.64 585.358 1053.37 583.165 1065.85 580.872C1079.28 578.424 1093.16 575.875 1107.59 575.875C1111.13 575.875 1114.63 576.026 1117.97 576.282C1124.81 576.945 1133.45 579.087 1142.48 581.379C1154.67 584.392 1167.3 587.551 1177.28 587.551C1179.21 587.566 1181.13 587.412 1183.02 587.092C1196.5 585.004 1210.78 573.07 1221.71 562.918C1239.94 546.041 1257.11 528.447 1259.96 513.96C1261.06 508.3 1260.71 499.224 1260.01 492.646C1259.01 482.651 1256.86 474.185 1254.87 466.023C1251.32 451.443 1247.63 436.346 1249.42 412.225C1250.32 400.489 1252.57 390.494 1255.02 380.039ZM1254.22 466.173C1256.21 474.331 1258.31 482.795 1259.31 492.692C1260.01 499.272 1260.36 508.246 1259.31 513.805C1256.51 528.135 1239.39 545.629 1221.26 562.455C1210.38 572.502 1196.2 584.335 1182.92 586.477C1181.05 586.735 1179.17 586.854 1177.28 586.832C1167.35 586.832 1154.77 583.725 1142.64 580.664C1133.55 578.419 1124.91 576.278 1118.07 575.614C1114.68 575.306 1111.18 575.153 1107.59 575.155C1093.11 575.155 1079.18 577.703 1065.75 580.252C1053.27 582.497 1041.54 584.69 1030.2 584.69C1016.97 584.69 1006.29 581.683 996.604 575.306C979.684 564.089 975.086 548.485 972.643 533.132C976.487 500.849 999.6 479.38 1020.07 460.361C1033.65 447.864 1047.88 437.869 1061.66 428.177C1074.49 419.205 1087.67 409.92 1100.6 398.447C1131.06 371.574 1146.38 333.577 1141.54 296.86C1140.29 287.427 1136.9 277.585 1133.6 267.997C1130.3 258.456 1126.91 248.566 1125.76 239.234C1123.56 222.659 1126.46 209.702 1134.25 200.678C1141.19 192.568 1151.92 188.134 1164.6 188.134C1177.18 188.134 1190.21 192.621 1199.45 200.067C1205.84 205.324 1210.98 211.895 1215.12 217.609C1233.05 242.341 1247.88 276.055 1260.51 320.673C1262.11 346.173 1258.16 363.36 1254.31 379.835C1251.87 390.389 1249.62 400.385 1248.77 412.168C1246.98 436.392 1250.62 451.536 1254.22 466.173ZM1213.28 381.772C1212.58 378.765 1212.13 375.704 1211.58 372.339C1209.78 360.61 1207.64 347.2 1195.86 340.875L1195.75 340.823H1195.66C1181.33 341.842 1172.29 354.897 1162.7 368.668C1159.26 373.561 1155.77 378.663 1151.98 383.102C1130.86 408.038 1107.04 424.561 1084.03 440.572C1067.85 451.846 1052.53 462.505 1038.99 475.404C1034.65 477.597 1031.7 481.425 1028.91 485.096C1026.76 487.848 1024.57 490.809 1021.67 493.05C1009.29 508.862 1005.2 527.375 1011.23 540.122C1015.03 548.18 1024.51 557.82 1048.18 557.82C1051.37 557.82 1054.72 557.616 1058.16 557.309C1065.76 556.541 1074.49 554.912 1083.63 553.178C1093.81 551.292 1105.35 549.145 1116.98 547.872C1119.42 547.616 1121.72 547.413 1124.02 547.109C1155.07 543.945 1173.79 541.908 1192.47 519.468C1205.74 503.405 1212.83 483.566 1214.83 456.943C1216.03 439.909 1215.08 421.245 1214.23 404.826C1213.78 396.562 1213.38 388.76 1213.28 381.772ZM1214.13 456.888C1212.18 483.36 1205.09 503.042 1191.96 518.954C1173.49 541.341 1155.91 543.127 1123.96 546.496C1121.67 546.7 1119.37 546.955 1116.92 547.206C1105.24 548.485 1093.71 550.626 1083.52 552.511C1074.39 554.193 1065.7 555.88 1058.11 556.59C1054.81 556.949 1051.49 557.137 1048.17 557.154C1024.85 557.154 1015.52 547.721 1011.78 539.811C1005.93 527.268 1009.93 509.063 1022.11 493.559C1025.01 491.261 1027.25 488.357 1029.45 485.553C1032.35 481.678 1035.05 478.106 1039.29 476.017L1039.39 475.965C1052.92 463.009 1068.25 452.35 1084.42 441.133C1107.49 425.07 1131.25 408.547 1152.47 383.506C1156.26 379.12 1159.76 374.018 1163.2 369.072C1172.69 355.458 1181.63 342.554 1195.6 341.536C1207.08 347.703 1209.03 360.299 1210.93 372.441C1211.48 375.804 1211.93 378.916 1212.57 381.874C1212.68 388.809 1213.13 396.564 1213.53 404.826C1214.38 421.242 1215.37 439.906 1214.13 456.888H1214.13ZM781.527 463.113C776.436 414.667 771.64 368.869 734.648 336.126C709.785 314.145 669.595 290.74 631.104 290.74C607.639 290.74 588.372 299.612 573.784 317.159C561.206 332.408 554.719 350.205 547.274 370.859C546.475 373.151 545.632 375.449 544.783 377.844C543.285 381.818 541.838 385.745 540.391 389.624C532.104 411.96 524.263 432.968 522.319 450.463C517.97 488.966 531.65 504.47 548.577 519.463C574.936 542.77 609.237 544.504 645.583 546.389C654.172 546.849 664.353 547.767 675.081 548.786C692.008 550.37 711.132 552.102 727.158 552.102C744.432 552.102 755.767 550.112 761.906 545.93C787.668 528.488 784.574 486.109 782.126 468.772L781.527 463.113ZM761.559 545.321C755.516 549.451 744.284 551.441 727.158 551.441C711.182 551.441 692.008 549.655 675.132 548.073C664.404 547.106 654.216 546.135 645.633 545.728C609.388 543.895 575.181 542.109 549.024 518.954C532.197 504.112 518.668 488.71 522.967 450.517C524.911 433.174 532.752 412.166 540.988 389.878C542.436 385.95 543.933 382.029 545.33 378.05C546.23 375.752 547.072 373.407 547.879 371.065C555.316 350.51 561.76 332.766 574.332 317.569C588.717 300.179 607.783 291.357 631.104 291.357C669.343 291.357 709.483 314.768 734.198 336.696C771.042 369.183 775.786 414.877 780.827 463.172L781.475 468.88C783.97 486.111 786.968 528.135 761.557 545.321H761.559ZM746.18 455.155C741.738 413.341 737.939 377.234 704.788 350.461C689.416 337.964 661.61 323.378 634.099 323.378C620.419 323.378 608.884 326.998 599.747 334.189C573.892 354.639 562.653 397.173 560.86 427.362C558.808 462.246 571.344 492.895 594.355 509.214C615.472 524.26 642.336 525.789 670.84 527.372C677.083 527.675 683.275 528.03 689.467 528.03C707.337 528.03 729.402 525.738 740.69 507.94C747.178 494.425 746.779 478.565 746.329 463.264C746.276 460.513 746.23 457.86 746.179 455.155H746.18ZM740.087 507.632C729.003 525.074 707.183 527.372 689.467 527.372C683.275 527.372 677.133 527.064 670.84 526.656C642.53 525.072 615.724 523.649 594.708 508.703C571.941 492.488 559.507 462.041 561.552 427.414C563.301 397.324 574.49 354.999 600.201 334.7C609.187 327.613 620.563 323.989 634.099 323.989C661.408 323.989 689.064 338.575 704.443 351.019C737.291 377.642 740.935 411.91 745.483 455.207C745.534 457.86 745.585 460.513 745.733 463.265C746.077 478.514 746.476 494.274 740.086 507.632H740.087ZM1153.42 461.839L1153.27 461.735C1152.28 460.994 1151.37 460.139 1150.57 459.186C1149.62 458.014 1148.47 457.013 1147.18 456.225L1147.13 456.179H1146.98C1128.06 459.593 1106.54 469.644 1090.82 482.336C1084.57 487.386 1077.28 494.274 1075.84 502.89L1075.79 503.042L1075.89 503.199C1076.83 504.452 1077.86 505.628 1078.99 506.713C1079.83 507.533 1080.64 508.298 1081.38 509.162L1081.44 509.318H1081.58C1084.54 509.627 1087.5 509.778 1090.47 509.772C1106.95 509.772 1129.41 504.676 1142.89 490.446C1150.28 482.544 1153.83 473.004 1153.43 461.99V461.838L1153.42 461.839ZM1142.39 489.986C1129.1 504.112 1106.84 509.108 1090.46 509.108C1087.56 509.114 1084.66 508.962 1081.77 508.653C1081.03 507.789 1080.23 506.967 1079.48 506.205C1078.37 505.222 1077.38 504.109 1076.53 502.889C1077.98 494.524 1085.12 487.793 1091.21 482.896C1106.84 470.248 1128.2 460.253 1146.98 456.838C1148.13 457.588 1149.16 458.517 1150.02 459.59C1150.84 460.533 1151.75 461.403 1152.72 462.191C1153.07 472.905 1149.68 482.237 1142.39 489.986ZM676.88 369.481C665.799 362.136 653.415 358.16 641.931 358.16C626.804 358.16 614.125 364.839 605.089 377.539C584.122 407.063 593.604 462.911 623.664 486.113C631.8 492.489 645.725 500.035 665.648 500.035C670.454 500.035 675.252 499.608 679.983 498.761C701 495.142 711.929 478.159 711.577 449.751C711.281 428.177 706.342 389.011 676.88 369.481ZM679.875 498.098C675.175 498.902 670.416 499.311 665.648 499.322C645.927 499.322 632.146 491.881 624.01 485.604C609.833 474.586 599.595 455.775 595.952 433.841C592.359 412.425 596.002 391.572 605.686 377.896C614.528 365.405 627.106 358.877 641.931 358.877C653.271 358.877 665.597 362.804 676.534 370.047C705.687 389.375 710.583 428.285 710.878 449.753C711.281 477.798 700.496 494.524 679.875 498.097V498.098ZM1355.42 179.102C1352.67 174.011 1350.02 169.107 1346.88 165.082L1346.73 164.931C1342.39 159.17 1335 149.578 1324.71 151.163C1313.63 152.84 1299 166.306 1301.64 186.093C1303.74 201.9 1314.12 213.478 1334.35 222.507C1335.64 223.066 1336.94 223.677 1338.29 224.241C1348.02 228.417 1357.26 232.398 1361.51 241.883C1365.9 260.646 1366.75 285.942 1367.7 312.821C1368.44 335.056 1369.25 358.104 1372.19 377.741C1377.83 415.634 1396.8 438.173 1430.2 446.794C1433.24 447.62 1436.32 448.267 1439.44 448.731V448.016C1436.37 447.568 1433.34 446.938 1430.35 446.131C1397.25 437.666 1378.43 415.226 1372.84 377.642C1369.94 358.006 1369.14 335.008 1368.35 312.772C1367.45 285.894 1366.55 260.55 1362.15 241.63C1357.76 231.837 1348.42 227.86 1338.54 223.628C1337.19 223.017 1335.89 222.51 1334.59 221.895C1314.62 213.022 1304.39 201.601 1302.34 185.992C1299.75 166.663 1313.97 153.507 1324.81 151.879C1334.69 150.345 1341.93 159.728 1346.23 165.294L1346.38 165.446C1349.47 169.521 1352.12 174.317 1354.86 179.416C1363.5 195.376 1372.44 211.899 1398 207.565C1410.08 205.572 1423.66 198.997 1439.44 187.623V186.759C1423.56 198.281 1409.98 204.911 1397.9 206.901C1372.79 211.132 1363.95 194.814 1355.42 179.102ZM1422.86 269.574C1408.08 286.202 1400.2 310.783 1401.2 337.097C1402.2 362.444 1411.48 385.595 1426.06 399.11C1430.07 402.091 1434.61 404.272 1439.44 405.533V404.875C1434.79 403.592 1430.41 401.484 1426.51 398.651C1412.03 385.185 1402.85 362.189 1401.85 337.097C1400.85 310.986 1408.69 286.505 1423.32 269.984C1428.15 264.692 1433.56 259.953 1439.44 255.856V255.041C1433.34 259.187 1427.77 264.068 1422.86 269.574ZM823.012 265.139C823.66 269.676 825.707 275.134 827.404 279.469C841.483 315.267 874.535 352.804 898.548 374.018C915.025 388.557 928.705 397.069 939.19 399.215C941.568 399.735 943.996 399.99 946.43 399.977C975.086 399.977 1010.28 370.195 1012.48 344.084C1012.35 342.787 1012.1 341.505 1011.73 340.257C1011.33 338.319 1010.83 336.382 1011.03 334.293V334.189L1010.98 334.141C1001.16 310.432 989.642 287.459 976.531 265.396C970.843 255.809 965.1 246.629 957.559 238.926C939.338 220.313 907.586 207.258 880.527 207.258C865.551 207.258 853.017 211.133 843.283 218.627C827.006 231.228 820.165 246.884 823.012 265.139ZM880.527 207.967C907.437 207.967 938.94 220.923 957.063 239.435C964.551 247.034 970.293 256.214 975.984 265.698C989.039 287.722 1000.52 310.644 1010.33 334.292C1010.26 336.362 1010.53 338.431 1011.13 340.412C1011.45 341.621 1011.7 342.848 1011.88 344.085C1009.63 369.888 974.787 399.262 946.429 399.262C944.032 399.281 941.639 399.059 939.287 398.599C928.904 396.406 915.325 387.993 898.951 373.512C875.035 352.295 842.086 314.914 828.052 279.215C826.355 274.933 824.308 269.528 823.61 265.037C820.865 247.035 827.654 231.584 843.733 219.191C853.319 211.796 865.701 207.969 880.527 207.969V207.967ZM885.67 322.459C900.096 335.921 917.274 345.666 930.602 347.806C932.973 348.246 935.379 348.468 937.79 348.469C946.077 348.469 952.718 345.817 957.61 340.615C963.351 334.547 966.199 325.012 965.746 313.789C959.903 288.138 954.014 267.28 936.34 252.59C925.206 243.206 908.033 237.138 892.757 237.138C874.384 237.138 861.653 245.76 857.855 260.701C856.762 265.139 856.961 271.563 857.61 276.001C859.806 290.891 870.041 307.827 885.67 322.459ZM858.559 260.905C862.255 246.22 874.683 237.854 892.759 237.854C907.932 237.854 924.859 243.87 935.943 253.103C953.417 267.688 959.255 288.394 965.099 313.894C965.548 324.855 962.701 334.188 957.113 340.208C952.419 345.207 945.876 347.755 937.788 347.755C935.412 347.741 933.041 347.537 930.698 347.144C903.04 342.607 862.954 307.262 858.21 275.898C857.613 271.564 857.413 265.24 858.559 260.906V260.905ZM194.509 890.115C178.38 882.109 159.408 881.294 143.684 887.874C135.996 891.111 129.236 896.212 124.013 902.716H124.812C129.872 896.459 136.43 891.582 143.878 888.538C159.459 881.957 178.28 882.773 194.206 890.678C199.397 893.227 204.293 897.259 208.988 902.716H209.88C205.035 896.898 199.894 892.767 194.509 890.115ZM766.399 862.119C760.105 857.582 754.113 852.734 748.327 848.097C734.298 836.874 721.068 826.367 706.486 821.37C690.166 813.062 674.556 808.898 659.657 808.878C647.369 808.852 635.257 811.809 624.363 817.495C591.509 834.375 572.991 871.244 565.899 902.716H566.597C573.689 871.502 592.006 834.833 624.658 818.104C649.073 805.561 676.534 806.887 706.234 821.985C720.766 826.93 733.945 837.484 747.928 848.706C753.715 853.297 759.706 858.091 766.046 862.681C772.84 867.627 779.88 872.42 786.715 877.011C799.097 885.425 811.232 893.634 821.914 902.716H823.012C812.128 893.378 799.746 885.018 787.068 876.448C780.228 871.811 773.188 867.067 766.399 862.119ZM530.446 849.319C526.004 838.305 516.219 832.948 500.544 832.948C492.61 832.948 484.373 834.326 477.728 835.449H477.533C475.999 835.702 474.445 835.821 472.889 835.804C466.647 835.804 460.253 833.919 454.119 832.081C450.972 831.114 447.625 830.143 444.428 829.48C441.829 828.869 439.287 828.41 436.738 827.851C426.212 825.757 415.275 823.563 405.389 818.926C401.494 817.088 397.505 815.302 393.61 813.62C374.336 805.103 354.413 796.283 341.489 779.144C340.683 778.073 339.992 777.002 339.236 775.932C330.207 762.265 322.359 747.58 314.878 733.35C306.382 717.287 297.605 700.811 287.014 685.719C276.783 670.982 263.002 654.71 249.675 638.954C245.024 633.444 240.689 628.243 236.441 623.141C215.273 597.543 195.308 573.421 158.458 573.421H158.408C148.969 573.421 138.989 574.951 127.757 578.012C95.854 586.779 39.5358 608.713 20.2686 656.24C15.1709 668.836 11.7797 686.434 8.17969 704.994C5.43652 719.021 2.59253 733.554 -1.00757 745.638V747.935C2.94531 735.392 5.94043 719.986 8.78442 705.15C12.4276 686.534 15.8188 669.039 20.8661 656.495C40.0397 609.172 96.1493 587.443 127.901 578.675C139.09 575.562 149.077 574.084 158.408 574.084H158.458C194.955 574.084 214.877 598.101 235.894 623.601C240.135 628.703 244.534 633.905 249.171 639.362C262.455 655.116 276.236 671.436 286.517 686.074C297 701.119 305.785 717.694 314.273 733.653C321.812 747.883 329.653 762.62 338.688 776.292C339.387 777.363 340.186 778.532 340.985 779.556C354.017 796.789 373.983 805.667 393.308 814.231C397.253 815.965 401.242 817.751 405.087 819.537C415.073 824.227 426.01 826.42 436.594 828.561C439.186 829.073 441.735 829.584 444.284 830.145C447.423 830.861 450.72 831.826 453.917 832.746C460.109 834.584 466.496 836.522 472.889 836.522C474.475 836.511 476.058 836.39 477.627 836.161L477.929 836.115C484.467 834.992 492.66 833.666 500.544 833.666C515.873 833.666 525.507 838.868 529.805 849.526C534.291 860.493 532.793 879.105 531.454 895.576C531.253 898.077 531.051 900.422 530.9 902.72H531.598C531.749 900.422 531.901 898.077 532.102 895.628C533.441 879.101 534.896 860.385 530.446 849.319ZM254.319 881.806C234.497 854.371 199.297 838.05 160.208 838.05C150.773 838.02 141.364 839.029 132.149 841.057C97.3949 848.911 86.2709 873.132 81.3245 902.716H81.9725C83.5205 893.331 85.6733 884.558 89.0142 876.648C97.0493 857.676 110.83 846.563 132.25 841.717C141.431 839.691 150.806 838.683 160.208 838.709C199.095 838.709 234.044 854.976 253.765 882.21C255.96 888.022 257.811 895.062 259.611 902.713H260.309C258.747 895.646 256.764 888.68 254.369 881.85L254.319 881.806ZM443.83 867.471C426.154 864.871 409.285 859.518 393.056 854.317C382.573 850.948 371.693 847.481 360.656 844.781C353.621 843.047 346.58 841.669 340.337 840.702C334.806 839.799 329.216 839.303 323.612 839.219C313.928 839.219 308.185 841.259 306.382 845.34C301.45 856.202 297.649 879.817 297.447 902.716H298.095C298.297 879.916 302.098 856.457 306.936 845.595C308.636 841.82 314.273 839.935 323.612 839.935C329.181 840.002 334.737 840.478 340.236 841.361C346.479 842.332 353.463 843.71 360.505 845.444C371.535 848.144 382.32 851.612 392.811 854.98C409.133 860.181 426.01 865.586 443.78 868.186C461.254 870.735 475.186 882.976 483.372 902.716H484.121C475.834 882.569 461.65 870.124 443.83 867.471ZM54.4613 885.07C55.3613 859.977 56.1605 838.253 72.4829 825.454C89.4606 812.038 119.117 808.215 140.789 805.458C142.935 805.155 145.081 804.847 147.075 804.594C150.932 804.078 154.819 803.823 158.71 803.831C180.778 803.831 204.293 811.43 227.06 818.725C247.421 825.201 268.438 831.984 288.116 833.154H288.166L288.216 833.101C299.448 829.837 302.242 817.602 301.148 807.25C297.951 766.809 284.019 733.711 252.915 692.97C246.68 684.808 240.783 676.495 235.145 668.437C225.454 654.875 216.375 641.971 205.74 629.835C189.814 611.525 169.841 602.345 146.326 602.345C119.067 602.345 88.4165 615.296 62.2013 637.99C35.1941 667.874 31.1477 707.449 29.3044 745.441C29.1533 748.402 29.1029 751.462 29.0021 754.773C28.5989 770.021 28.1597 789.046 20.8157 798.43C14.3717 806.692 6.79004 813.068 -1.00757 818.676V819.491C6.9845 813.778 14.7245 807.355 21.3629 798.785C28.8005 789.302 29.2542 770.178 29.7006 754.825C29.8013 751.513 29.8517 748.402 30.0029 745.493C31.7958 707.653 35.842 668.131 62.6981 638.449C88.7621 615.91 119.218 602.953 146.326 602.953C169.64 602.953 189.512 612.187 205.236 630.239C215.828 642.428 224.964 655.227 234.591 668.894C240.236 676.9 246.125 685.161 252.368 693.377C283.371 734.021 297.303 767.067 300.442 807.356C301.544 817.351 298.901 829.284 288.065 832.449C268.546 831.273 247.573 824.595 227.254 818.067C204.437 810.772 180.879 803.173 158.71 803.173C154.786 803.192 150.867 803.448 146.974 803.941C144.98 804.244 142.834 804.5 140.681 804.756C118.966 807.56 89.1653 811.435 72.1372 824.898C55.5125 837.953 54.7134 859.729 53.7629 885.078C53.5685 890.326 53.4172 895.783 53.0717 901.24C52.9905 901.731 52.9376 902.226 52.9133 902.724H53.6189C53.6189 902.212 53.6693 901.805 53.6693 901.293C54.0653 895.775 54.267 890.37 54.4613 885.07ZM15.0197 896.951C14.2781 887.518 6.79004 879.154 -1.00757 879.154V879.868C6.48767 879.868 13.6301 887.874 14.3213 897.002C14.5211 898.901 14.538 900.814 14.3717 902.716H15.0197C15.196 900.798 15.196 898.869 15.0197 896.951ZM108.137 770.678C112.733 770.651 117.315 770.173 121.817 769.252C131.998 767.211 142.885 763.947 154.469 760.479C167.393 756.605 180.879 752.526 193.659 750.281C205.489 748.087 210.629 742.734 209.283 733.81V733.757C205.143 724.833 201.946 714.891 198.548 704.383C191.261 681.432 183.665 657.72 165.248 645.377C156.564 639.616 145.973 636.557 134.648 636.557C116.223 636.557 97.3949 644.412 84.118 657.618C73.2389 668.533 65.2972 686.278 62.8564 705.098C60.2572 724.937 64.1525 743.753 73.5845 756.709C79.8773 765.326 93.1541 770.678 108.137 770.678ZM84.6149 658.127C97.7477 645.021 116.475 637.218 134.648 637.218C145.88 637.218 156.312 640.226 164.902 645.986C183.176 658.174 190.664 681.736 198 704.583C201.341 715.09 204.495 725.034 208.635 733.958C209.88 742.527 205.143 747.526 193.558 749.562C180.778 751.912 167.249 755.886 154.217 759.813C142.733 763.281 131.797 766.545 121.709 768.586C117.241 769.487 112.695 769.949 108.137 769.965C93.3557 769.965 80.3309 764.709 74.1389 756.247C53.6189 728.201 63.1013 679.598 84.6149 658.13V658.127ZM872.943 466.985C869.548 460.405 866.051 453.621 863.157 446.89C860.56 441.129 857.963 435.062 855.417 429.145C839.891 393.092 823.864 355.758 800.501 325.825C791.564 314.351 780.731 303.385 770.297 292.674C760.261 282.527 750.824 272.992 743.283 263.299C739.7 258.659 736.399 253.807 733.4 248.769C726.959 238.571 720.872 228.93 710.728 222.303L710.635 222.251L707.733 222.455C668.997 224.8 635.496 226.842 599.798 233.468C574.44 238.163 556.461 243.207 546.525 248.414C526.005 259.172 520.418 278.4 514.427 298.798C513.78 300.886 513.132 303.033 512.534 305.174C503.844 334.037 491.258 363.312 458.664 381.616L458.563 381.772C458.311 382.076 458.059 382.384 457.764 382.686C451.017 386.31 444.285 389.982 437.496 393.653C425.709 399.977 413.527 406.609 401.495 412.928C396.304 415.685 391.156 418.545 386.066 421.242C378.182 425.577 369.995 430.015 361.91 434.146C356.316 436.898 351.369 440.726 346.48 444.397C345.278 445.316 344.032 446.282 342.83 447.201C338.337 450.57 333.348 453.985 327.66 456.225C316.975 460.513 305.138 461.019 293.762 461.583C283.869 461.99 273.688 462.502 264.105 465.359C254.968 468.059 248.625 470.456 243.333 478.414C226.212 503.906 234.895 522.988 248.927 547.106C263.702 572.403 281.673 592.138 302.395 605.705C306.118 608.051 310.004 610.13 314.023 611.924C318.372 614.013 322.814 616.154 326.803 619.011C331.454 622.274 335.947 625.847 340.288 629.314C343.838 632.118 347.431 635.027 351.117 637.779C366.151 648.845 384.122 661.138 404.296 668.376C410.978 670.773 418.92 671.232 424.413 671.232C429.871 671.25 435.319 670.755 440.685 669.755C446.928 668.53 451.968 665.729 457.31 662.72C459.556 661.441 461.954 660.115 464.402 658.893C467.095 657.668 469.896 656.699 472.588 655.733C476.179 654.598 479.655 653.13 482.971 651.347C491.164 646.756 499.099 641.398 506.738 636.197C514.125 631.199 521.764 626.051 529.605 621.564C566.649 600.294 598.401 588.31 629.304 583.725C638.511 582.344 647.807 581.644 657.117 581.631C668.576 581.619 680.011 582.695 691.267 584.842C699.95 586.477 708.885 589.025 717.576 591.526C732.801 595.861 748.475 600.344 763.856 600.344C771.825 600.455 779.746 599.09 787.219 596.318C801.896 590.808 814.979 579.382 828.859 567.245C835.944 561.078 843.235 554.702 851.174 548.634C852.969 547.307 855.218 545.725 857.764 543.939C863.403 539.861 870.442 534.866 876.484 529.661C887.716 519.818 890.812 510.841 887.118 498.553C884.024 488.457 878.681 478 872.94 466.988L872.943 466.985ZM876.086 529.103C870.044 534.351 863.055 539.302 857.367 543.381C854.821 545.167 852.622 546.743 850.823 548.122C842.838 554.138 835.496 560.566 828.41 566.739C814.627 578.823 801.601 590.197 787.021 595.701C779.604 598.424 771.758 599.79 763.857 599.734C748.576 599.734 732.953 595.248 717.773 590.862C709.039 588.361 700.104 585.812 691.363 584.13C680.071 582.021 668.608 580.962 657.12 580.966C647.792 580.954 638.477 581.654 629.256 583.06C598.159 587.65 566.4 599.734 529.255 620.999C521.422 625.49 513.782 630.692 506.345 635.636C498.749 640.838 490.764 646.143 482.678 650.734C479.385 652.482 475.941 653.933 472.39 655.068C469.584 655.991 466.836 657.081 464.16 658.332C461.654 659.502 459.264 660.881 457.018 662.103C451.675 665.064 446.686 667.921 440.587 669.088C435.257 670.104 429.842 670.617 424.416 670.618C418.973 670.618 411.139 670.059 404.494 667.715C384.478 660.524 366.449 648.23 351.523 637.164C347.88 634.46 344.186 631.603 340.687 628.752C336.295 625.331 331.802 621.767 327.209 618.448C323.098 615.724 318.774 613.336 314.278 611.309C310.305 609.533 306.467 607.47 302.794 605.137C282.13 591.57 264.202 571.94 249.528 546.795C235.596 522.826 227.014 503.905 243.883 478.766C249.074 470.964 255.317 468.666 264.252 466.013C273.785 463.109 283.98 462.7 293.765 462.191C305.242 461.731 317.071 461.172 327.958 456.838C333.646 454.592 338.642 451.125 343.186 447.756C344.489 446.842 345.684 445.871 346.879 444.952C351.725 441.28 356.714 437.458 362.158 434.701C370.344 430.622 378.487 426.189 386.371 421.901C391.411 419.15 396.66 416.241 401.844 413.541C413.882 407.164 426.065 400.637 437.794 394.26C444.583 390.537 451.322 386.866 458.112 383.247L458.213 383.195C458.522 382.897 458.806 382.574 459.062 382.229C491.815 363.716 504.394 334.343 513.134 305.374C513.782 303.233 514.43 301.086 515.028 298.997C520.968 278.751 526.613 259.628 546.83 249.074C556.766 243.817 574.586 238.77 599.902 234.128C635.549 227.503 669.05 225.459 707.786 223.115L710.436 222.963C720.422 229.491 726.46 238.974 732.85 249.121C735.878 254.159 739.179 259.028 742.738 263.706C750.376 273.399 759.813 283.034 769.797 293.133C780.232 303.844 791.116 314.858 799.95 326.283C823.267 356.167 839.341 393.446 854.821 429.401C857.367 435.318 859.964 441.386 862.509 447.146C865.505 453.878 868.997 460.714 872.392 467.293C878.032 478.36 883.376 488.657 886.467 498.81C890.061 510.744 887.116 519.518 876.084 529.105L876.086 529.103ZM813.878 420.733L812.583 415.682C799.051 364.278 778.98 333.781 738.44 303.44L737.494 302.673C715.674 286.353 696.803 272.175 675.836 265.396C665.346 261.924 652.516 260.14 638.792 260.14H638.742C620.519 260.14 601.943 263.403 589.112 268.808C555.215 283.138 542.788 313.432 528.51 348.619C509.732 394.668 476.828 454.237 426.954 476.572C417.925 480.598 409.184 481.419 399.947 482.286C396.404 482.588 392.711 482.996 388.967 483.51C374.833 485.551 359.058 488.507 340.64 492.583C338.041 493.095 335.442 493.706 332.85 494.317C319.365 497.377 301.544 506.051 295.705 520.328C291.364 530.882 292.012 540.523 297.448 548.935C313.727 573.929 369.793 582.492 392.812 582.545H393.258C403.446 582.545 413.879 581.474 423.959 580.404C429.697 579.793 435.594 579.13 441.282 578.77C450.973 578.059 458.864 575.25 468.599 569.03C478.628 562.607 489.414 559.547 502.446 559.547C512.18 559.547 522.066 561.176 532.499 562.859C535.645 563.423 538.943 563.929 542.233 564.443C555.913 566.486 570.544 567.405 588.414 567.405C599.495 567.405 610.684 567.044 621.462 566.689C632.197 566.381 643.235 566.026 654.114 566.026C673.936 566.026 689.912 567.25 704.593 569.849C708.885 570.669 713.528 571.786 718.468 572.961C729.052 575.562 741.037 578.517 753.067 578.517C759.219 578.596 765.347 577.736 771.241 575.969C799.052 567.405 822.313 532.672 826.609 505.543C828.209 495.39 827.959 484.989 825.908 472.8C822.711 454.241 818.422 437.969 813.877 420.735L813.878 420.733ZM825.906 505.435C821.663 532.367 798.648 566.787 771.092 575.302C765.242 577.037 759.167 577.898 753.066 577.857C741.087 577.857 729.155 574.948 718.618 572.347C713.729 571.119 709.035 570.003 704.693 569.179C690.013 566.531 673.985 565.356 654.113 565.356C643.234 565.356 632.197 565.664 621.461 566.019C610.683 566.375 599.494 566.735 588.413 566.735C570.644 566.735 555.963 565.763 542.333 563.774C539.036 563.215 535.745 562.703 532.599 562.19C522.116 560.508 512.23 558.925 502.445 558.925C489.312 558.925 478.383 561.939 468.195 568.414C458.561 574.587 450.771 577.339 441.231 578.054C435.543 578.508 429.653 579.073 423.915 579.684C413.878 580.754 403.395 581.824 393.257 581.824H392.811C369.893 581.773 314.18 573.307 298.044 548.575C292.709 540.366 292.104 530.933 296.353 520.527C302.098 506.5 319.666 497.988 332.993 494.928C335.542 494.364 338.141 493.805 340.733 493.194C359.158 489.162 374.933 486.209 389.06 484.165C392.76 483.653 396.454 483.301 399.996 482.99C409.284 482.076 418.119 481.256 427.205 477.178C477.332 454.79 510.279 395.075 529.157 348.869C543.384 313.885 555.711 283.644 589.364 269.466C602.144 264.061 620.561 260.844 638.741 260.844H638.792C652.472 260.844 665.201 262.63 675.634 265.998C696.5 272.73 715.277 286.856 737.141 303.227L738.091 303.99C778.428 334.234 798.448 364.577 811.929 415.827L813.225 420.877C817.816 438.116 822.111 454.434 825.209 472.896C827.307 485.041 827.504 495.391 825.906 505.435ZM1046.83 837.13C1045.68 827.543 1044.23 809.745 1047.47 797.813C1052.87 778.125 1068.45 761.194 1083.47 744.771C1104.74 721.673 1126.71 697.749 1119.97 665.777C1116.32 648.543 1107.24 637.833 1092.01 632.986C1078.83 628.757 1062.6 629.314 1044.33 630.334C1010.98 632.224 988.365 626.611 975.232 621.514C961.955 616.312 949.772 607.743 937.891 599.382C922.012 588.212 906.987 577.605 890.011 575.259C883.762 574.31 877.389 574.571 871.239 576.026C855.36 579.598 843.375 587.755 830.698 596.424C809.129 611.062 786.865 626.258 743.63 617.438C734.141 615.547 724.709 612.644 714.719 609.631C682.867 599.996 649.919 590.1 613.077 610.044C579.777 627.125 558.803 658.489 538.586 688.836C529.154 702.962 519.369 717.646 508.583 730.498C494.752 746.921 475.924 769.409 452.812 761.606C443.531 758.546 433.948 757.016 424.653 755.538C409.929 753.141 394.751 750.692 381.071 741.924C371.286 735.647 363.698 726.722 356.311 718.054C352.862 714.027 349.269 709.844 345.525 705.97C337.238 697.452 330.549 687.405 324.054 677.717C318.51 669.456 312.823 660.986 306.134 653.388C297.148 645.283 289.264 638.193 280.077 629.726C268.989 619.375 258.851 607.082 249.066 595.254C230.303 572.455 212.627 550.986 189.508 544.051C173.186 539.105 156.309 539.769 134.788 546.093C123.311 549.508 108.134 556.088 97.4489 561.086C74.8265 571.676 53.0309 583.949 32.2457 597.803C17.3046 607.94 5.72559 622.304 -1.01111 639.058V640.843C5.55713 623.591 17.2736 608.778 32.5481 598.413C53.3387 584.573 75.131 572.3 97.7441 561.696C108.379 556.751 123.506 550.119 134.939 546.751C156.41 540.479 173.135 539.815 189.306 544.662C212.224 551.545 229.85 572.967 248.57 595.663C258.354 607.491 268.492 619.835 279.674 630.186C288.861 638.703 296.702 645.842 305.687 653.9C312.326 661.399 317.963 669.911 323.507 678.126C329.995 687.812 336.791 697.856 345.028 706.43C348.823 710.305 352.365 714.488 355.807 718.566C363.201 727.235 370.84 736.209 380.719 742.484C394.507 751.356 409.778 753.806 424.559 756.15C433.84 757.68 443.43 759.21 452.567 762.271C476.126 770.178 495.198 747.534 509.08 730.959C519.916 718.002 529.651 703.417 539.133 689.244C559.358 658.898 580.223 627.586 613.322 610.656C649.97 590.817 682.816 600.713 714.568 610.296C724.556 613.308 733.993 616.16 743.527 618.103C786.968 626.915 809.384 611.721 831.049 596.984C843.682 588.362 855.614 580.252 871.441 576.685C877.495 575.267 883.766 575.024 889.912 575.969C906.688 578.215 921.716 588.769 937.538 599.992C949.374 608.305 961.705 616.974 975.033 622.176C988.166 627.273 1010.88 632.933 1044.38 631.048C1075.68 629.262 1111.23 627.225 1119.37 665.932C1125.96 697.544 1104.14 721.365 1083.02 744.364C1067.89 760.839 1052.27 777.822 1046.88 797.656C1043.73 809.03 1044.73 825.451 1046.13 837.229C1048.42 856.154 1053.86 875.581 1059.66 896.084C1060.26 898.277 1060.86 900.47 1061.5 902.716H1062.2C1061.56 900.418 1060.91 898.173 1060.26 895.88C1054.51 875.377 1049.02 856.05 1046.83 837.13Z" fill="black" fill-opacity="0.3"/>
</g>
<defs>
<clipPath id="clip0">
<rect width="1440" height="903" fill="white" transform="translate(1439 903) rotate(-180)"/>
</clipPath>
</defs>
</svg>
