<svg width="1438" height="903" viewBox="0 0 1438 903" fill="none" xmlns="http://www.w3.org/2000/svg">
<g clip-path="url(#clip0)">
<path fill-rule="evenodd" clip-rule="evenodd" d="M736.989 29.3044C735.645 30.4796 734.392 31.8528 733.145 33.1324C732.058 34.3943 730.891 35.5855 729.653 36.6991C707.488 56.9453 683.872 68.0628 663.301 68.0628C642.933 68.0628 625.71 57.7597 612.124 37.466C604.576 26.0455 598.898 13.494 595.305 0.284532H596.003C599.602 13.3462 605.211 25.7684 612.628 37.1059C626.157 57.1483 643.185 67.3996 663.301 67.3996C683.721 67.3996 707.135 56.2813 729.253 36.2389C730.399 35.1681 731.498 33.9461 732.694 32.6723C733.942 31.3459 735.24 30.0194 736.539 28.7456C746.475 19.8675 757.157 11.711 767.494 3.80436C769.043 2.63492 770.541 1.51158 772.085 0.284532H773.184C771.435 1.66352 769.641 2.98993 767.842 4.3682C757.51 12.2691 746.877 20.4314 736.989 29.3044ZM1394.71 95.0405C1380.33 81.3745 1365.45 67.1965 1355.91 46.9503C1351.12 36.6472 1346.37 20.3788 1344.18 0.288133H1344.87C1347.02 20.2837 1351.77 36.4463 1356.51 46.6976C1365.95 66.74 1380.77 80.8661 1395.15 94.5328C1411.88 110.441 1429.15 126.813 1437.69 152.719C1437.99 153.484 1438.24 154.267 1438.44 155.065V157.362C1438.04 155.832 1437.54 154.349 1437.09 152.976C1428.56 127.22 1411.33 110.848 1394.71 95.0405H1394.71ZM668.19 36.5471C661.156 36.5471 654.316 34.0455 648.023 29.1524C642.133 24.6158 639.239 19.9719 636.186 15.1783C634.94 13.1368 633.594 11.0478 632.046 8.90624C630.859 6.09616 629.842 3.21703 629.001 0.284532H629.699C630.549 3.09291 631.499 5.84583 632.593 8.49938C634.09 10.5302 635.474 12.6413 636.741 14.8233C639.736 19.6169 642.63 24.1031 648.369 28.5886C654.669 33.4349 661.256 35.8839 668.19 35.8839C686.716 35.8839 704.493 19.0531 720.165 4.26378C721.611 2.89056 722.961 1.61095 724.357 0.284532H725.359C723.809 1.76793 722.263 3.193 720.666 4.7232C704.889 19.6637 686.968 36.5471 668.19 36.5471ZM1426.31 214.425C1422.96 196.779 1419.86 180.105 1415.07 168.324C1406.99 148.233 1390.16 131.351 1372.39 113.449C1361.4 102.488 1350.12 91.1656 1340.59 78.6684C1328.66 63.1143 1320.66 49.6543 1313.98 33.7423C1310.03 24.3581 1306.63 13.548 1303.34 3.09363C1303.04 2.17478 1302.69 1.20337 1302.44 0.285252H1303.14C1303.39 1.14937 1303.69 2.01924 1303.99 2.89128C1307.23 13.3406 1310.63 24.1557 1314.58 33.4881C1321.26 49.3483 1329.2 62.7586 1341.13 78.2637C1350.67 90.6558 1361.95 102.027 1372.84 112.943C1390.71 130.946 1407.58 147.875 1415.72 168.069C1420.51 179.902 1423.66 196.629 1426.96 214.327C1430.15 231.362 1433.45 249.002 1438.34 261.854C1438.39 261.949 1438.43 262.053 1438.44 262.162V263.948C1438.22 263.323 1437.97 262.709 1437.69 262.109C1432.75 249.158 1429.45 231.511 1426.31 214.425ZM1371.79 434.33C1348.57 443.814 1319.72 455.543 1308.68 479.565C1307.93 492.671 1312.43 503.837 1317.22 515.619C1323.96 532.141 1331.6 550.858 1327.3 580.134C1324.01 602.364 1311.23 616.647 1296.4 633.17C1290.26 640 1284.02 647.04 1278.03 655.045C1262.4 676.06 1251.72 699.773 1243.43 720.225C1235.09 740.568 1228.56 756.633 1206.68 761.991C1193.61 765.203 1175.33 767.449 1162.8 768.774C1156.44 769.509 1150.04 769.898 1143.63 769.941C1133.99 769.941 1125.71 768.875 1118.72 766.787C1103.89 762.293 1094.45 749.951 1082.57 734.346C1079.03 729.709 1075.39 724.964 1071.24 719.915C1068.44 716.448 1064.75 712.672 1060.8 708.594C1052.61 700.181 1044.18 691.46 1041.83 684.47C1040.98 681.77 1041.24 679.321 1041.43 676.517C1041.72 674.096 1041.77 671.653 1041.58 669.222L1041.53 669.07L1041.63 668.969C1049.57 658.264 1059.21 649.694 1068.54 641.328C1084.37 627.155 1099.4 613.792 1105.04 591.811C1108.03 580.234 1106.93 567.842 1101.74 553.919C1096.2 539.235 1083.32 523.067 1065.35 508.481C1057.26 501.902 1048.67 495.071 1039.59 487.776C997.9 454.579 950.619 416.942 924.806 384.147L924.761 383.943C923.912 379.917 924.208 375.327 925.358 370.277C928.702 356.506 939.238 340.139 954.315 325.35C968.691 311.323 985.02 300.816 998.051 297.145C999.099 296.842 1001.15 296.281 1003.34 295.819C1020.71 291.845 1038.74 294.595 1056.11 297.25C1071.14 299.543 1085.42 301.736 1099.25 299.903C1129.15 295.87 1150.67 275.419 1158.26 243.801C1168.25 202.29 1140.63 176.231 1113.93 150.988C1094.25 132.323 1073.84 113.095 1068.5 87.6998C1063.4 63.7826 1070.04 37.9743 1074.44 20.8929C1076.18 14.0052 1078.33 7.12184 1080.63 0.285973H1081.33C1078.98 7.17369 1076.89 14.1118 1075.09 21.0967C1070.74 38.0795 1064.1 63.7826 1069.15 87.5443C1074.44 112.741 1094.76 131.917 1114.43 150.476C1141.23 175.824 1168.99 202.035 1158.91 243.958C1151.27 275.829 1129.46 296.483 1099.3 300.515C1085.42 302.347 1071.15 300.207 1056.02 297.914C1038.69 295.261 1020.77 292.556 1003.49 296.483C1001.35 296.942 999.249 297.506 998.201 297.809C972.338 305.053 933.198 340.752 926.057 370.382C924.854 374.73 924.615 379.289 925.36 383.739C951.172 416.482 998.349 454.118 1039.99 487.263C1049.12 494.506 1057.71 501.342 1065.8 507.917C1083.82 522.607 1096.8 538.822 1102.34 553.715C1107.58 567.742 1108.68 580.233 1105.69 591.962C1099.95 614.145 1084.92 627.661 1069 641.891C1059.71 650.152 1050.17 658.717 1042.23 669.276C1042.41 671.704 1042.37 674.143 1042.14 676.566C1041.83 679.323 1041.63 681.668 1042.48 684.216C1044.78 691.052 1053.12 699.77 1061.31 708.134C1065.2 712.167 1068.95 715.988 1071.74 719.456C1075.88 724.452 1079.58 729.249 1083.12 733.943C1094.96 749.44 1104.29 761.681 1118.92 766.124C1130.05 769.487 1144.38 770.15 1162.71 768.112C1175.29 766.729 1193.51 764.49 1206.54 761.328C1228.06 756.129 1234.59 740.165 1242.83 719.968C1251.17 699.465 1261.8 675.699 1277.48 654.583C1283.47 646.578 1289.76 639.543 1295.86 632.707C1310.63 616.284 1323.36 602.058 1326.61 580.026C1330.9 550.96 1323.31 532.342 1316.62 515.872C1311.83 503.99 1307.24 492.769 1307.99 479.458L1308.03 479.306C1319.22 455.08 1348.23 443.2 1371.54 433.763C1377.88 431.163 1384.42 428.507 1391.56 426.933C1406.97 423.495 1422.66 421.413 1438.44 420.711V421.427C1422.71 422.087 1407.07 424.153 1391.71 427.599C1384.62 429.129 1378.08 431.777 1371.79 434.33ZM1033.15 20.1239C1031.35 27.1635 1029.25 34.2032 1027.21 41.0859C1022.81 56.2302 1018.67 70.5594 1017.02 83.3648C1015.77 92.4928 1015.77 101.925 1016.97 108.504C1020.42 128.291 1033.44 143.692 1046.03 158.637C1060.46 175.719 1075.39 193.469 1076.53 218.097C1074.98 240.03 1050.77 243.241 1025.16 246.557C1020.46 247.22 1015.57 247.832 1010.88 248.594C992.11 251.654 970.49 257.775 948.375 266.237C940.635 269.245 933.196 272.968 925.957 276.592C912.179 283.577 899.147 290.207 883.918 291.941C881.945 292.148 879.962 292.25 877.977 292.249C867.645 292.249 858.658 289.288 850.969 286.484C843.183 283.679 836.491 280.671 830.003 277.663C816.072 271.391 802.944 265.475 782.673 263.636C779.041 263.246 775.39 263.059 771.738 263.078C749.719 263.078 731.3 268.995 713.428 274.702C698.049 279.7 683.425 284.342 668.298 284.342C665.341 284.364 662.387 284.177 659.456 283.783C636.488 280.822 618.82 268.686 605.536 246.602C593.8 227.123 587.068 202.49 581.423 178.776C579.774 171.841 576.88 158.838 575.886 149.401C574.885 140.529 576.232 134.054 580.076 129.563C587.017 121.353 600.942 120.841 617.07 120.335C624.414 120.079 631.945 119.823 639.484 118.805C671.243 114.622 697.847 110.439 727.307 97.8431C751.57 87.54 775.834 74.6409 791.957 65.716C819.016 50.5688 849.671 31.8528 871.288 0.284532H872.085C850.368 32.161 819.566 51.1326 792.256 66.3295C776.178 75.3063 751.915 88.1578 727.6 98.5085C698.096 111.052 671.384 115.287 639.582 119.517C632.043 120.489 624.454 120.741 617.118 121.047C601.141 121.559 587.31 122.019 580.52 130.024C576.877 134.358 575.53 140.682 576.524 149.352C577.575 158.736 580.419 171.692 582.068 178.627C593.25 225.799 609.327 276.694 659.554 283.122C662.455 283.47 665.374 283.638 668.295 283.626C683.314 283.626 697.844 278.989 713.274 274.038C731.148 268.331 749.619 262.414 771.738 262.414C775.383 262.414 779.082 262.565 782.719 262.918C803.095 264.756 816.271 270.773 830.248 277.096C836.741 280.005 843.428 283.065 851.168 285.869C858.806 288.622 867.794 291.53 877.977 291.53C879.929 291.532 881.88 291.429 883.821 291.223C898.897 289.54 911.877 282.961 925.653 276.029C932.892 272.356 940.336 268.582 948.122 265.626C970.288 257.111 991.96 250.99 1010.73 247.929C1015.47 247.166 1020.37 246.503 1025.06 245.939C1050.37 242.576 1074.33 239.412 1075.88 218.048C1074.73 193.77 1059.85 176.124 1045.53 159.043C1032.84 144.101 1019.81 128.545 1016.27 108.654C1015.07 101.974 1015.17 92.4906 1016.32 83.2583C1018.02 70.3542 1022.21 56.0768 1026.61 40.9325C1028.6 34.0448 1030.65 26.9057 1032.55 19.9187C1033.74 15.3821 1034.99 10.7382 1036.29 6.25197C1036.84 4.31419 1037.34 2.27272 1037.94 0.283092H1038.64C1038.04 2.37713 1037.44 4.41356 1036.94 6.45575C1035.64 10.9455 1034.39 15.5333 1033.15 20.1239ZM1391.91 45.6232C1385.12 34.8657 1379.03 21.9097 1378.93 0.284532H1379.58C1379.73 21.7059 1385.72 34.6101 1392.46 45.2682C1401.05 58.7829 1413.43 66.8883 1426.61 75.5122C1430.55 78.1125 1434.54 80.7135 1438.44 83.5175V84.3326C1434.44 81.476 1430.3 78.7757 1426.25 76.1236C1413.08 67.4522 1400.6 59.2899 1391.91 45.6232ZM989.411 61.4307C985.367 70.7156 981.124 80.1993 979.728 90.1424C975.781 117.376 989.559 135.076 1002.84 152.26C1011.98 163.937 1020.51 174.956 1023.16 188.521C1023.69 191.227 1023.8 193.996 1023.51 196.736C1023.41 198.161 1023.31 199.688 1023.31 201.78V201.885C1019.92 211.525 1009.78 218.309 1001.84 222.283C973.188 236.769 926.504 243.598 892.456 248.597C887.313 249.332 882.125 249.707 876.93 249.72C863.699 249.72 851.419 247.427 838.438 245.031C824.558 242.476 810.183 239.774 793.603 239.774C789.211 239.774 784.718 239.978 780.378 240.333C779.478 240.437 776.978 240.588 773.783 240.792C769.09 241.049 763.199 241.356 759.059 241.712C745.179 242.782 734.193 245.283 723.611 247.727C709.432 250.944 696.155 253.999 676.427 253.999C674.382 253.999 672.237 253.952 670.091 253.9C654.417 251.398 640.031 234.521 634.292 211.877C629.555 193.161 630.649 168.272 647.922 154.507C668.241 138.338 727.455 124.16 759.259 121.559C766.048 120.949 771.687 120.896 777.131 120.896C783.22 120.844 789.463 120.798 797.651 120.082C819.572 118.04 837.69 109.22 858.314 90.5579C883.824 67.4025 897.653 49.5009 917.426 14.0585C919.807 9.64497 921.809 5.03708 923.411 0.284532H924.162C922.501 5.14468 920.43 9.85475 917.97 14.3638C898.197 49.9027 884.368 67.8072 858.709 91.0612C838.04 109.83 819.768 118.703 797.699 120.744C789.514 121.507 783.22 121.559 777.131 121.559C771.436 121.611 766.099 121.663 759.305 122.222C727.603 124.875 668.593 138.949 648.275 155.065C631.297 168.58 630.297 193.213 634.941 211.725C640.585 234.06 654.812 250.735 670.192 253.236C672.287 253.288 674.382 253.336 676.427 253.336C696.004 253.336 709.381 250.228 723.462 247.063C734.096 244.619 745.077 242.118 759.008 241.048C763.15 240.74 769.043 240.332 773.737 240.076C776.932 239.924 779.425 239.773 780.327 239.721C784.739 239.287 789.17 239.083 793.603 239.11C810.229 239.11 824.661 241.763 838.536 244.367C851.521 246.763 863.75 249.003 876.93 249.003C882.092 249.036 887.25 248.678 892.359 247.933C926.356 242.936 972.985 236.152 1001.54 221.671C1009.33 217.796 1019.32 211.117 1022.61 201.68C1022.66 199.639 1022.76 198.108 1022.81 196.683C1023.18 194 1023.08 191.274 1022.51 188.625C1019.87 175.314 1011.38 164.3 1002.34 152.67C988.915 135.432 975.081 117.582 979.079 90.0459C980.525 80.051 984.718 70.4103 988.813 61.183C990.408 57.5588 992.11 53.7884 993.557 50.0129C998.8 36.699 1004.94 18.7946 1008.83 0.284532H1009.48C1005.53 18.9019 999.394 36.9547 994.154 50.3182C992.709 54.0361 991.057 57.8122 989.411 61.4307ZM1369.24 336.462C1360 325.96 1351.82 314.737 1343.13 302.909C1329.35 284.14 1315.12 264.761 1296.75 248.75C1295.45 247.526 1294.16 246.196 1292.95 244.87C1291.85 243.646 1290.66 242.426 1289.46 241.303C1277.48 230.488 1263.75 221.82 1250.52 213.511C1241.33 207.694 1231.8 201.73 1222.86 194.998C1215.77 189.64 1208.63 184.032 1201.79 178.627C1191.36 170.365 1180.57 161.9 1169.69 154.25C1164.55 150.631 1159.2 147.158 1153.51 143.487C1125.76 125.387 1094.3 104.885 1089.51 67.805C1086.96 48.2184 1092.01 22.9776 1102.74 0.282372H1103.44C1092.7 22.9258 1087.66 48.1687 1090.16 67.7553C1094.95 104.524 1126.25 124.931 1153.91 142.876C1159.55 146.549 1164.89 150.067 1170.04 153.64C1180.97 161.337 1191.75 169.854 1202.14 178.064C1209.03 183.474 1216.12 189.081 1223.31 194.435C1232.19 201.114 1241.68 207.136 1250.87 212.896C1264.15 221.314 1277.88 229.982 1289.86 240.792C1291.16 241.915 1292.31 243.24 1293.46 244.416C1294.63 245.747 1295.88 247.006 1297.2 248.187C1315.62 264.25 1329.9 283.682 1343.63 302.45C1352.32 314.33 1360.56 325.501 1369.74 335.955C1387.69 356.487 1411.78 370.687 1438.44 376.448V377.158C1411.61 371.34 1387.36 357.077 1369.24 336.462ZM1410.18 310.048C1401.24 296.736 1401.19 272.564 1402.14 252.98C1402.89 237.173 1402.64 206.983 1392.51 181.89C1384.67 162.715 1366.1 145.628 1348.12 129.21C1345.38 126.661 1342.68 124.16 1340.03 121.663C1304.03 88.1578 1286.16 58.0153 1270.44 23.1836C1269.09 20.2312 1267.94 17.0628 1266.79 14.0031C1265.42 10.0975 1263.83 6.26774 1262.05 2.52979C1261.7 1.76721 1261.3 0.999587 1260.95 0.284532H1261.7C1262 0.94774 1262.35 1.56414 1262.7 2.17478C1264.46 5.95233 1266.03 9.81704 1267.39 13.7539C1268.55 16.8143 1269.69 19.9215 1271.09 22.8826C1286.77 57.7143 1304.54 87.7524 1340.49 121.205C1343.13 123.702 1345.88 126.151 1348.57 128.652C1366.59 145.171 1385.27 162.256 1393.11 181.635C1403.29 206.827 1403.54 237.173 1402.79 252.98C1401.84 272.511 1401.94 296.533 1410.73 309.693C1417.12 319.124 1427.3 325.856 1438.44 331.621V332.383C1427.1 326.519 1416.72 319.735 1410.18 310.048H1410.18ZM1428.5 19.0005C1424.16 14.4157 1422.31 7.27162 1422.31 0.284532H1423.06C1423.06 7.17225 1424.91 14.2069 1428.95 18.5462C1431.8 21.5547 1435.04 23.1872 1438.44 23.1872V23.8504C1434.9 23.8468 1431.45 22.1654 1428.5 19.0005ZM1223.41 11.0996C1232.9 22.5204 1239.84 38.1299 1246.53 53.2252C1247.57 55.5231 1248.57 57.7618 1249.57 60.0611C1259.36 81.5819 1271.49 108.408 1284.77 126.712C1291.96 136.712 1303.84 143.898 1316.42 151.501C1334.24 162.259 1352.67 173.429 1359.86 193.931C1362.45 201.326 1362.5 209.431 1359.96 219.582C1357.46 225.244 1353.12 228.1 1347.13 228.1C1337.24 228.1 1325.56 220.293 1320.77 216.115C1311.23 207.901 1302.84 196.532 1294.81 185.461C1290.46 179.596 1286.02 173.429 1281.42 167.818C1279.18 165.212 1271.49 156.241 1265.05 152.366C1249.77 143.185 1230.2 136.146 1209.48 128.699C1180.67 118.402 1150.97 107.744 1132.45 90.3995C1122.56 81.3263 1116.72 67.046 1116.22 51.3379C1115.77 34.5071 1121.46 18.5476 1132.4 6.30741C1134.33 4.13617 1136.43 2.12219 1138.69 0.284532H1139.79C1137.32 2.27475 1135.02 4.4575 1132.9 6.8122C1122.04 19.0238 1116.32 34.9554 1116.92 51.2846C1117.32 66.789 1123.16 80.9158 1132.85 89.8918C1151.32 107.078 1181.03 117.736 1209.68 128.033C1230.45 135.48 1250.02 142.519 1265.35 151.747C1271.99 155.779 1279.68 164.755 1281.87 167.403C1286.57 172.965 1291.01 179.14 1295.35 185.101C1303.39 196.068 1311.68 207.389 1321.17 215.546C1325.91 219.677 1337.44 227.428 1347.13 227.428C1352.87 227.428 1356.96 224.723 1359.35 219.318C1361.8 209.422 1361.75 201.417 1359.21 194.126C1352.12 173.88 1333.79 162.814 1316.07 152.104C1303.44 144.453 1291.51 137.21 1284.17 127.063C1270.94 108.755 1258.81 81.8757 1248.97 60.3556C1247.97 58.0628 1246.98 55.765 1245.93 53.473C1239.24 38.4323 1232.3 22.9279 1222.86 11.5591C1219.31 7.26725 1215.2 3.47479 1210.63 0.284532H1211.78C1216.09 3.39204 1220 7.02507 1223.41 11.0996ZM959.406 185.562L959.355 185.667C958.159 186.941 957.459 188.721 956.809 190.455L956.661 190.815L956.559 191.019C951.666 195.662 944.381 198.263 935.992 198.263C924.06 198.263 912.232 193.108 906.437 185.51C904.755 183.382 903.583 180.897 903.011 178.245C902.44 175.594 902.484 172.846 903.141 170.214C905.687 160.114 915.124 156.798 925.409 154.098L925.456 154.046L925.504 154.101C942.978 156.701 961.05 167.61 959.404 185.459V185.564L959.406 185.562ZM925.504 154.762C915.424 157.461 906.28 160.626 903.786 170.365C903.151 172.902 903.108 175.551 903.662 178.107C904.216 180.663 905.352 183.057 906.982 185.102C912.626 192.549 924.308 197.599 935.989 197.599C944.179 197.599 951.316 195.045 956.061 190.507L956.158 190.252C956.858 188.471 957.558 186.632 958.755 185.254C960.455 165.42 937.792 156.647 925.504 154.762ZM778.524 197.291L778.274 197.751L778.177 197.802C767.441 204.686 749.67 209.276 733.991 209.276C723.659 209.276 705.634 207.187 700.943 192.956V192.904C700.881 190.473 701.319 188.055 702.231 185.801C703.143 183.546 704.508 181.503 706.242 179.799C713.025 172.66 726.555 168.277 741.483 168.277C760.404 168.277 780.823 175.724 781.124 192.247V192.351L780.976 192.451C779.855 193.891 779.024 195.535 778.527 197.291H778.524ZM741.48 168.935C726.751 168.935 713.375 173.321 706.678 180.256C705.043 181.907 703.751 183.867 702.877 186.021C702.003 188.175 701.565 190.481 701.588 192.805C706.182 206.571 723.908 208.613 733.988 208.613C749.514 208.613 767.036 204.076 777.775 197.291L777.872 196.983C778.573 195.249 779.222 193.416 780.418 192.086C780.076 176.178 760.005 168.935 741.483 168.935H741.48ZM1254.02 522.961C1257.81 539.536 1261.76 556.774 1260.16 582.478C1247.52 627.203 1232.6 660.962 1214.68 685.799C1210.48 691.564 1205.34 698.139 1198.85 703.441C1189.56 711.04 1176.33 715.526 1163.6 715.526C1150.77 715.526 1139.79 711.04 1132.7 702.726C1124.81 693.598 1121.91 680.443 1124.06 663.665C1125.31 654.28 1128.66 644.384 1131.95 634.796C1135.25 625.261 1138.64 615.417 1139.84 606.038C1144.68 569.571 1129.4 531.784 1099.15 505.008C1086.32 493.582 1073.04 484.354 1060.3 475.43C1046.47 465.69 1032.2 455.643 1018.67 443.097C998.097 424.078 974.836 402.453 970.991 369.864V369.712C973.435 354.307 978.128 338.447 995.306 327.125C1005.04 320.65 1015.82 317.642 1029.2 317.642C1040.64 317.642 1052.37 319.836 1064.85 322.128C1078.28 324.576 1092.16 327.125 1106.59 327.125C1110.13 327.125 1113.63 326.974 1116.97 326.718C1123.81 326.055 1132.45 323.914 1141.48 321.621C1153.67 318.608 1166.3 315.449 1176.28 315.449C1178.21 315.434 1180.13 315.588 1182.02 315.908C1195.5 317.996 1209.78 329.93 1220.71 340.082C1238.94 356.959 1256.11 374.554 1258.96 389.04C1260.06 394.7 1259.71 403.776 1259.01 410.355C1258.01 420.349 1255.86 428.815 1253.87 436.977C1250.32 451.557 1246.63 466.654 1248.42 490.776C1249.32 502.511 1251.57 512.507 1254.02 522.961ZM1253.22 436.827C1255.21 428.669 1257.31 420.205 1258.31 410.308C1259.01 403.728 1259.36 394.754 1258.31 389.195C1255.51 374.865 1238.39 357.371 1220.26 340.546C1209.38 330.498 1195.2 318.665 1181.92 316.523C1180.05 316.265 1178.17 316.146 1176.28 316.168C1166.35 316.168 1153.77 319.275 1141.64 322.336C1132.55 324.581 1123.91 326.723 1117.07 327.386C1113.68 327.694 1110.18 327.847 1106.59 327.845C1092.11 327.845 1078.18 325.297 1064.75 322.748C1052.27 320.503 1040.54 318.31 1029.2 318.31C1015.97 318.31 1005.29 321.318 995.604 327.694C978.684 338.911 974.086 354.515 971.643 369.868C975.487 402.151 998.6 423.62 1019.07 442.639C1032.65 455.136 1046.88 465.131 1060.66 474.823C1073.49 483.795 1086.67 493.08 1099.6 504.553C1130.06 531.426 1145.38 569.423 1140.54 606.14C1139.29 615.573 1135.9 625.415 1132.6 635.003C1129.3 644.544 1125.91 654.435 1124.76 663.766C1122.56 680.341 1125.46 693.298 1133.25 702.322C1140.19 710.432 1150.92 714.866 1163.6 714.866C1176.18 714.866 1189.21 710.38 1198.45 702.933C1204.84 697.676 1209.98 691.105 1214.12 685.391C1232.05 660.659 1246.88 626.945 1259.51 582.327C1261.11 556.827 1257.16 539.641 1253.31 523.165C1250.87 512.611 1248.62 502.615 1247.77 490.832C1245.98 466.608 1249.62 451.464 1253.22 436.827ZM1212.28 521.228C1211.58 524.235 1211.13 527.296 1210.58 530.661C1208.78 542.39 1206.64 555.8 1194.86 562.125L1194.75 562.177H1194.66C1180.33 561.158 1171.29 548.103 1161.7 534.332C1158.26 529.439 1154.77 524.337 1150.98 519.898C1129.86 494.962 1106.04 478.44 1083.03 462.428C1066.85 451.154 1051.53 440.495 1037.99 427.596C1033.65 425.403 1030.7 421.575 1027.91 417.904C1025.76 415.152 1023.57 412.191 1020.67 409.951C1008.29 394.138 1004.2 375.625 1010.23 362.878C1014.03 354.82 1023.51 345.18 1047.18 345.18C1050.37 345.18 1053.72 345.384 1057.16 345.691C1064.76 346.459 1073.49 348.089 1082.63 349.823C1092.81 351.708 1104.35 353.855 1115.98 355.128C1118.42 355.384 1120.72 355.588 1123.02 355.891C1154.07 359.055 1172.79 361.092 1191.47 383.532C1204.74 399.595 1211.83 419.434 1213.83 446.057C1215.03 463.091 1214.08 481.756 1213.23 498.174C1212.78 506.438 1212.38 514.24 1212.28 521.228ZM1213.13 446.112C1211.18 419.64 1204.09 399.958 1190.96 384.046C1172.49 361.659 1154.91 359.873 1122.96 356.504C1120.67 356.301 1118.37 356.045 1115.92 355.794C1104.24 354.515 1092.71 352.374 1082.52 350.489C1073.39 348.807 1064.7 347.12 1057.11 346.41C1053.81 346.051 1050.49 345.863 1047.17 345.846C1023.85 345.846 1014.52 355.279 1010.78 363.189C1004.93 375.732 1008.93 393.937 1021.11 409.441C1024.01 411.739 1026.25 414.643 1028.45 417.447C1031.35 421.322 1034.05 424.894 1038.29 426.983L1038.39 427.035C1051.92 439.992 1067.25 450.65 1083.42 461.867C1106.49 477.93 1130.25 494.453 1151.47 519.494C1155.26 523.88 1158.76 528.982 1162.2 533.928C1171.69 547.542 1180.63 560.446 1194.6 561.464C1206.08 555.297 1208.03 542.701 1209.93 530.559C1210.48 527.197 1210.93 524.084 1211.57 521.126C1211.68 514.191 1212.13 506.436 1212.53 498.175C1213.38 481.759 1214.37 463.094 1213.13 446.112H1213.13ZM780.527 439.887C775.436 488.333 770.64 534.131 733.648 566.875C708.785 588.855 668.595 612.26 630.104 612.26C606.639 612.26 587.372 603.388 572.784 585.841C560.206 570.592 553.719 552.795 546.274 532.141C545.475 529.849 544.632 527.552 543.783 525.156C542.285 521.182 540.838 517.256 539.391 513.376C531.104 491.041 523.263 470.032 521.319 452.537C516.97 414.034 530.65 398.53 547.577 383.537C573.936 360.23 608.237 358.496 644.583 356.611C653.172 356.151 663.353 355.233 674.081 354.214C691.008 352.63 710.132 350.898 726.158 350.898C743.432 350.898 754.767 352.888 760.906 357.07C786.668 374.512 783.574 416.891 781.126 434.228L780.527 439.887ZM760.559 357.68C754.516 353.549 743.284 351.559 726.158 351.559C710.182 351.559 691.008 353.345 674.132 354.927C663.404 355.894 653.216 356.865 644.633 357.272C608.388 359.105 574.181 360.891 548.024 384.046C531.197 398.888 517.668 414.29 521.967 452.483C523.911 469.826 531.752 490.835 539.988 513.122C541.436 517.05 542.933 520.971 544.33 524.951C545.23 527.248 546.072 529.593 546.879 531.935C554.316 552.49 560.76 570.234 573.332 585.431C587.717 602.821 606.783 611.643 630.104 611.643C668.343 611.643 708.483 588.232 733.198 566.304C770.042 533.817 774.786 488.123 779.827 439.828L780.475 434.121C782.97 416.889 785.968 374.865 760.557 357.68H760.559ZM745.18 447.846C740.738 489.659 736.939 525.766 703.788 552.54C688.416 565.036 660.61 579.622 633.099 579.622C619.419 579.622 607.884 576.002 598.747 568.812C572.892 548.361 561.653 505.827 559.86 475.638C557.808 440.754 570.344 410.105 593.355 393.786C614.472 378.74 641.336 377.211 669.84 375.628C676.083 375.325 682.275 374.97 688.467 374.97C706.337 374.97 728.402 377.263 739.69 395.06C746.178 408.575 745.779 424.435 745.329 439.736C745.276 442.487 745.23 445.14 745.179 447.846H745.18ZM739.087 395.368C728.003 377.926 706.183 375.628 688.467 375.628C682.275 375.628 676.133 375.936 669.84 376.344C641.53 377.928 614.724 379.352 593.708 394.297C570.941 410.512 558.507 440.959 560.552 475.586C562.301 505.676 573.49 548.002 599.201 568.3C608.187 575.387 619.563 579.011 633.099 579.011C660.408 579.011 688.064 564.425 703.443 551.981C736.291 525.358 739.935 491.09 744.483 447.793C744.534 445.14 744.585 442.487 744.733 439.735C745.077 424.486 745.476 408.726 739.086 395.368H739.087ZM1152.42 441.161L1152.27 441.265C1151.28 442.006 1150.37 442.861 1149.57 443.814C1148.62 444.986 1147.47 445.987 1146.18 446.775L1146.13 446.822H1145.98C1127.06 443.407 1105.54 433.356 1089.82 420.664C1083.57 415.614 1076.28 408.726 1074.84 400.11L1074.79 399.958L1074.89 399.802C1075.83 398.548 1076.86 397.372 1077.99 396.287C1078.83 395.467 1079.64 394.703 1080.38 393.838L1080.44 393.682H1080.58C1083.54 393.373 1086.5 393.222 1089.47 393.228C1105.95 393.228 1128.41 398.325 1141.89 412.554C1149.28 420.456 1152.83 429.997 1152.43 441.01V441.162L1152.42 441.161ZM1141.39 413.014C1128.1 398.888 1105.84 393.892 1089.46 393.892C1086.56 393.886 1083.66 394.038 1080.77 394.347C1080.03 395.211 1079.23 396.033 1078.48 396.795C1077.37 397.778 1076.38 398.891 1075.53 400.111C1076.98 408.476 1084.12 415.207 1090.21 420.104C1105.84 432.752 1127.2 442.747 1145.98 446.162C1147.13 445.412 1148.16 444.483 1149.02 443.411C1149.84 442.467 1150.75 441.597 1151.72 440.81C1152.07 430.095 1148.68 420.764 1141.39 413.014ZM675.88 533.519C664.799 540.864 652.415 544.84 640.931 544.84C625.804 544.84 613.125 538.161 604.089 525.461C583.122 495.937 592.604 440.089 622.664 416.887C630.8 410.511 644.725 402.965 664.648 402.965C669.454 402.966 674.252 403.392 678.983 404.239C700 407.858 710.929 424.841 710.577 453.249C710.281 474.823 705.342 513.989 675.88 533.519ZM678.875 404.902C674.175 404.099 669.416 403.689 664.648 403.678C644.927 403.678 631.146 411.119 623.01 417.396C608.833 428.414 598.595 447.226 594.952 469.159C591.359 490.575 595.002 511.429 604.686 525.104C613.528 537.595 626.106 544.123 640.931 544.123C652.271 544.123 664.597 540.196 675.534 532.953C704.687 513.626 709.583 474.715 709.878 453.247C710.281 425.202 699.496 408.476 678.875 404.903V404.902ZM1354.42 723.898C1351.67 728.989 1349.02 733.893 1345.88 737.918L1345.73 738.069C1341.39 743.83 1334 753.422 1323.71 751.837C1312.63 750.16 1298 736.694 1300.64 716.907C1302.74 701.1 1313.12 689.522 1333.35 680.493C1334.64 679.935 1335.94 679.323 1337.29 678.759C1347.02 674.583 1356.26 670.602 1360.51 661.117C1364.9 642.354 1365.75 617.058 1366.7 590.179C1367.44 567.945 1368.25 544.896 1371.19 525.259C1376.83 487.367 1395.8 464.828 1429.2 456.206C1432.24 455.38 1435.32 454.734 1438.44 454.269V454.984C1435.37 455.432 1432.34 456.062 1429.35 456.869C1396.25 465.335 1377.43 487.774 1371.84 525.358C1368.94 544.994 1368.14 567.992 1367.35 590.228C1366.45 617.106 1365.55 642.45 1361.15 661.37C1356.76 671.163 1347.42 675.14 1337.54 679.372C1336.19 679.983 1334.89 680.49 1333.59 681.105C1313.62 689.978 1303.39 701.399 1301.34 717.008C1298.75 736.337 1312.97 749.494 1323.81 751.121C1333.69 752.655 1340.93 743.272 1345.23 737.706L1345.38 737.554C1348.47 733.479 1351.12 728.683 1353.86 723.585C1362.5 707.624 1371.44 691.101 1397 695.435C1409.08 697.429 1422.66 704.003 1438.44 715.377V716.241C1422.56 704.72 1408.98 698.089 1396.9 696.099C1371.79 691.868 1362.95 708.186 1354.42 723.898ZM1421.86 633.426C1407.08 616.798 1399.2 592.218 1400.2 565.903C1401.2 540.556 1410.48 517.405 1425.06 503.89C1429.07 500.909 1433.61 498.728 1438.44 497.467V498.125C1433.79 499.408 1429.41 501.516 1425.51 504.349C1411.03 517.815 1401.85 540.811 1400.85 565.903C1399.85 592.014 1407.69 616.496 1422.32 633.016C1427.15 638.308 1432.56 643.047 1438.44 647.144V647.959C1432.34 643.813 1426.77 638.932 1421.86 633.426ZM822.012 637.861C822.66 633.324 824.707 627.866 826.404 623.531C840.483 587.734 873.535 550.196 897.548 528.982C914.025 514.444 927.705 505.931 938.19 503.786C940.568 503.266 942.996 503.01 945.43 503.023C974.086 503.023 1009.28 532.805 1011.48 558.916C1011.35 560.213 1011.1 561.495 1010.73 562.743C1010.33 564.681 1009.83 566.618 1010.03 568.707V568.812L1009.98 568.859C1000.16 592.568 988.642 615.542 975.531 637.604C969.843 647.191 964.1 656.372 956.559 664.074C938.338 682.687 906.586 695.742 879.527 695.742C864.551 695.742 852.017 691.867 842.283 684.373C826.006 671.772 819.165 656.116 822.012 637.861ZM879.527 695.033C906.437 695.033 937.94 682.077 956.063 663.565C963.551 655.966 969.293 646.786 974.984 637.302C988.039 615.278 999.518 592.356 1009.33 568.709C1009.26 566.638 1009.53 564.569 1010.13 562.588C1010.45 561.379 1010.7 560.153 1010.88 558.915C1008.63 533.112 973.787 503.738 945.429 503.738C943.032 503.719 940.639 503.941 938.287 504.401C927.904 506.594 914.325 515.007 897.951 529.488C874.035 550.706 841.086 588.086 827.052 623.785C825.355 628.067 823.308 633.472 822.61 637.963C819.865 655.965 826.654 671.417 842.733 683.809C852.319 691.204 864.701 695.031 879.527 695.031V695.033ZM884.67 580.541C899.096 567.079 916.274 557.334 929.602 555.194C931.973 554.754 934.379 554.532 936.79 554.531C945.077 554.531 951.718 557.183 956.61 562.385C962.351 568.453 965.199 577.988 964.746 589.211C958.903 614.862 953.014 635.72 935.34 650.41C924.206 659.794 907.033 665.862 891.757 665.862C873.384 665.862 860.653 657.24 856.855 642.299C855.762 637.861 855.961 631.438 856.61 626.999C858.806 612.109 869.041 595.174 884.67 580.541ZM857.559 642.095C861.255 656.78 873.683 665.146 891.759 665.146C906.932 665.146 923.859 659.13 934.943 649.897C952.417 635.312 958.255 614.606 964.099 589.106C964.548 578.145 961.701 568.812 956.113 562.792C951.419 557.793 944.876 555.245 936.788 555.245C934.412 555.259 932.041 555.463 929.698 555.856C902.04 560.393 861.954 595.738 857.21 627.103C856.613 631.436 856.413 637.76 857.559 642.094V642.095ZM193.509 12.8855C177.38 20.8908 158.408 21.7059 142.684 15.1257C134.996 11.8892 128.236 6.78861 123.013 0.284532H123.812C128.872 6.54099 135.43 11.4178 142.878 14.4625C158.459 21.0427 177.28 20.2276 193.206 12.3217C198.397 9.77323 203.293 5.74142 207.988 0.284532H208.88C204.035 6.10219 198.894 10.2327 193.509 12.8855ZM765.399 40.8814C759.105 45.418 753.113 50.2657 747.327 54.9031C733.298 66.1258 720.068 76.6327 705.486 81.6301C689.166 89.9386 673.556 94.1024 658.657 94.1216C646.369 94.1484 634.257 91.1915 623.363 85.505C590.509 68.6252 571.991 31.7563 564.899 0.284532H565.597C572.689 31.4978 591.006 68.1672 623.658 84.8958C648.073 97.4391 675.534 96.1127 705.234 81.0152C719.766 76.0703 732.945 65.5158 746.928 54.2939C752.715 49.7033 758.706 44.9096 765.046 40.319C771.84 35.3734 778.88 30.5797 785.715 25.9891C798.097 17.5755 810.232 9.36566 820.914 0.284532H822.012C811.128 9.62201 798.746 17.9823 786.068 26.5522C779.228 31.1896 772.188 35.9329 765.399 40.8814ZM529.446 53.6811C525.004 64.6949 515.219 70.0524 499.544 70.0524C491.61 70.0524 483.373 68.6742 476.728 67.5508H476.533C474.999 67.2977 473.445 67.1789 471.889 67.1958C465.647 67.1958 459.253 69.081 453.119 70.9194C449.972 71.8858 446.625 72.8572 443.428 73.5204C440.829 74.1311 438.287 74.5905 435.738 75.1493C425.212 77.2433 414.275 79.4367 404.389 84.0741C400.494 85.9125 396.505 87.6984 392.61 89.3798C373.336 97.8971 353.413 106.718 340.489 123.857C339.683 124.927 338.992 125.998 338.236 127.068C329.207 140.735 321.359 155.42 313.878 169.65C305.382 185.713 296.605 202.189 286.014 217.281C275.783 232.019 262.002 248.291 248.675 264.046C244.024 269.556 239.689 274.757 235.441 279.859C214.273 305.457 194.308 329.579 157.458 329.579H157.408C147.969 329.579 137.989 328.049 126.757 324.989C94.854 316.221 38.5358 294.287 19.2686 246.76C14.1709 234.164 10.7797 216.566 7.17969 198.006C4.43652 183.979 1.59253 169.447 -2.00757 157.362V155.065C1.94531 167.608 4.94043 183.014 7.78442 197.85C11.4276 216.467 14.8188 233.961 19.8661 246.505C39.0397 293.828 95.1493 315.558 126.901 324.325C138.09 327.438 148.077 328.916 157.408 328.916H157.458C193.955 328.916 213.877 304.899 234.894 279.399C239.135 274.297 243.534 269.096 248.171 263.639C261.455 247.884 275.236 231.564 285.517 216.926C296 201.881 304.785 185.306 313.273 169.347C320.812 155.117 328.653 140.38 337.688 126.708C338.387 125.637 339.186 124.468 339.985 123.444C353.017 106.211 372.983 97.3333 392.308 88.7692C396.253 87.0352 400.242 85.2493 404.087 83.4635C414.073 78.7735 425.01 76.5801 435.594 74.4393C438.186 73.9273 440.735 73.416 443.284 72.855C446.423 72.1393 449.72 71.1736 452.917 70.2541C459.109 68.4157 465.496 66.4786 471.889 66.4786C473.475 66.4895 475.058 66.6098 476.627 66.8386L476.929 66.8855C483.467 68.0081 491.66 69.3338 499.544 69.3338C514.873 69.3338 524.507 64.1325 528.805 53.4737C533.291 42.5073 531.793 23.895 530.454 7.42428C530.253 4.92267 530.051 2.57804 529.9 0.280212H530.598C530.749 2.57804 530.901 4.92267 531.102 7.37171C532.441 23.8993 533.896 42.6153 529.446 53.6811ZM253.319 21.1939C233.497 48.6296 198.297 64.9506 159.208 64.9506C149.773 64.9802 140.364 63.9715 131.149 61.9427C96.3949 54.0886 85.2709 29.8682 80.3245 0.284532H80.9725C82.5205 9.66882 84.6733 18.4417 88.0142 26.352C96.0493 45.3244 109.83 56.4369 131.25 61.2831C140.431 63.3088 149.806 64.3175 159.208 64.2909C198.095 64.2909 233.044 48.024 252.765 20.79C254.96 14.9781 256.811 7.93843 258.611 0.287413H259.309C257.747 7.35394 255.764 14.3206 253.369 21.15L253.319 21.1939ZM442.83 35.5289C425.154 38.1292 408.285 43.4823 392.056 48.6836C381.573 52.0522 370.693 55.5195 359.656 58.2191C352.621 59.9531 345.58 61.3314 339.337 62.2977C333.806 63.2009 328.216 63.6967 322.612 63.7811C312.928 63.7811 307.185 61.7409 305.382 57.6603C300.45 46.7984 296.649 23.1836 296.447 0.284532H297.095C297.297 23.0842 301.098 46.5428 305.936 57.4047C307.636 61.1801 313.273 63.0653 322.612 63.0653C328.181 62.9985 333.737 62.522 339.236 61.6396C345.479 60.6681 352.463 59.2899 359.505 57.5559C370.535 54.8563 381.32 51.3883 391.811 48.0204C408.133 42.8191 425.01 37.4141 442.78 34.8138C460.254 32.2654 474.186 20.0245 482.372 0.284532H483.121C474.834 20.4314 460.65 32.8761 442.83 35.5289ZM53.4613 17.9305C54.3613 43.0229 55.1605 64.7475 71.4829 77.5465C88.4606 90.9626 118.117 94.7848 139.789 97.5421C141.935 97.8452 144.081 98.1535 146.075 98.4062C149.932 98.9221 153.819 99.1769 157.71 99.1688C179.778 99.1688 203.293 91.5703 226.06 84.275C246.421 77.7992 267.438 71.0159 287.116 69.8465H287.166L287.216 69.8991C298.448 73.1632 301.242 85.3984 300.148 95.7505C296.951 136.191 283.019 169.289 251.915 210.03C245.68 218.192 239.783 226.505 234.145 234.563C224.454 248.126 215.375 261.029 204.74 273.165C188.814 291.475 168.841 300.655 145.326 300.655C118.067 300.655 87.4165 287.704 61.2013 265.01C34.1941 235.126 30.1477 195.551 28.3044 157.559C28.1533 154.598 28.1029 151.538 28.0021 148.227C27.5989 132.979 27.1597 113.955 19.8157 104.57C13.3717 96.3086 5.79004 89.9321 -2.00757 84.324V83.5089C5.9845 89.2221 13.7245 95.6454 20.3629 104.215C27.8005 113.698 28.2542 132.822 28.7006 148.175C28.8013 151.487 28.8517 154.598 29.0029 157.507C30.7958 195.347 34.842 234.869 61.6981 264.551C87.7621 287.09 118.218 300.047 145.326 300.047C168.64 300.047 188.512 290.814 204.236 272.761C214.828 260.572 223.964 247.773 233.591 234.106C239.236 226.1 245.125 217.839 251.368 209.623C282.371 168.979 296.303 135.933 299.442 95.6439C300.544 85.649 297.901 73.7163 287.065 70.5515C267.546 71.7267 246.573 78.4055 226.254 84.9332C203.437 92.2285 179.879 99.827 157.71 99.827C153.786 99.8083 149.867 99.5519 145.974 99.0593C143.98 98.7562 141.834 98.5005 139.681 98.2442C117.966 95.4401 88.1653 91.5653 71.1372 78.1024C54.5125 65.0471 53.7134 43.2706 52.7629 17.9226C52.5685 12.6745 52.4172 7.21689 52.0717 1.76001C51.9905 1.269 51.9376 0.773709 51.9133 0.276611H52.6189C52.6189 0.788599 52.6693 1.19545 52.6693 1.70744C53.0653 7.22481 53.267 12.6299 53.4613 17.9305ZM14.0197 6.0489C13.2781 15.4822 5.79004 23.8461 -2.00757 23.8461V23.1317C5.48767 23.1317 12.6301 15.1264 13.3213 5.99777C13.5211 4.09937 13.538 2.18616 13.3717 0.284532H14.0197C14.196 2.20194 14.196 4.13149 14.0197 6.0489ZM107.137 132.322C111.733 132.349 116.315 132.827 120.817 133.748C130.998 135.789 141.885 139.053 153.469 142.521C166.393 146.396 179.879 150.474 192.659 152.719C204.489 154.913 209.629 160.266 208.283 169.19V169.243C204.143 178.168 200.946 188.109 197.548 198.618C190.261 221.568 182.665 245.28 164.248 257.623C155.564 263.384 144.973 266.443 133.648 266.443C115.223 266.443 96.3949 258.589 83.118 245.382C72.2389 234.468 64.2972 216.722 61.8564 197.902C59.2572 178.063 63.1525 159.247 72.5845 146.291C78.8773 137.674 92.1541 132.322 107.137 132.322ZM83.6149 244.873C96.7477 257.979 115.475 265.782 133.648 265.782C144.88 265.782 155.312 262.775 163.902 257.014C182.176 244.826 189.664 221.264 197 198.417C200.341 187.91 203.495 177.966 207.635 169.042C208.88 160.473 204.143 155.475 192.558 153.438C179.778 151.088 166.249 147.114 153.217 143.187C141.733 139.72 130.797 136.455 120.709 134.414C116.241 133.513 111.695 133.051 107.137 133.035C92.3557 133.035 79.3309 138.292 73.1389 146.753C52.6189 174.799 62.1013 223.402 83.6149 244.87V244.873ZM871.943 436.015C868.548 442.595 865.051 449.379 862.157 456.11C859.56 461.871 856.963 467.938 854.417 473.855C838.891 509.908 822.864 547.242 799.501 577.175C790.564 588.649 779.731 599.615 769.297 610.326C759.261 620.473 749.824 630.008 742.283 639.701C738.7 644.341 735.399 649.193 732.4 654.231C725.959 664.43 719.872 674.07 709.728 680.697L709.635 680.749L706.733 680.545C667.997 678.201 634.496 676.158 598.798 669.532C573.44 664.837 555.461 659.793 545.525 654.586C525.005 643.828 519.418 624.6 513.427 604.202C512.78 602.114 512.132 599.967 511.534 597.826C502.844 568.964 490.258 539.688 457.664 521.384L457.563 521.228C457.311 520.924 457.059 520.616 456.764 520.314C450.017 516.69 443.285 513.018 436.496 509.347C424.709 503.023 412.527 496.391 400.495 490.072C395.304 487.315 390.156 484.455 385.066 481.759C377.182 477.424 368.995 472.985 360.91 468.854C355.316 466.102 350.369 462.274 345.48 458.603C344.278 457.684 343.032 456.718 341.83 455.799C337.337 452.43 332.348 449.015 326.66 446.775C315.975 442.487 304.138 441.981 292.762 441.417C282.869 441.01 272.688 440.498 263.105 437.641C253.968 434.941 247.625 432.544 242.333 424.586C225.212 399.094 233.895 380.012 247.927 355.894C262.702 330.597 280.673 310.863 301.395 297.295C305.118 294.949 309.004 292.87 313.023 291.076C317.372 288.987 321.814 286.846 325.803 283.989C330.454 280.726 334.947 277.153 339.288 273.686C342.838 270.882 346.431 267.973 350.117 265.221C365.151 254.155 383.122 241.862 403.296 234.625C409.978 232.227 417.92 231.768 423.413 231.768C428.871 231.75 434.319 232.245 439.685 233.246C445.928 234.47 450.968 237.272 456.31 240.28C458.556 241.559 460.954 242.885 463.402 244.107C466.095 245.332 468.896 246.301 471.588 247.267C475.179 248.402 478.655 249.87 481.971 251.653C490.164 256.244 498.099 261.602 505.738 266.803C513.125 271.801 520.764 276.95 528.605 281.436C565.649 302.706 597.401 314.691 628.304 319.275C637.511 320.656 646.807 321.356 656.117 321.369C667.576 321.381 679.011 320.305 690.267 318.158C698.95 316.523 707.885 313.975 716.576 311.474C731.801 307.14 747.475 302.656 762.856 302.656C770.825 302.546 778.746 303.91 786.219 306.682C800.896 312.192 813.979 323.618 827.859 335.755C834.944 341.922 842.235 348.298 850.174 354.366C851.969 355.693 854.218 357.275 856.764 359.061C862.403 363.139 869.442 368.134 875.484 373.339C886.716 383.182 889.812 392.159 886.118 404.447C883.024 414.543 877.681 425.001 871.94 436.012L871.943 436.015ZM875.086 373.898C869.044 368.649 862.055 363.698 856.367 359.619C853.821 357.834 851.622 356.257 849.823 354.878C841.838 348.862 834.496 342.434 827.41 336.261C813.627 324.177 800.601 312.803 786.021 307.299C778.604 304.576 770.758 303.21 762.857 303.266C747.576 303.266 731.953 307.752 716.773 312.138C708.039 314.639 699.104 317.188 690.363 318.87C679.071 320.979 667.608 322.038 656.12 322.034C646.792 322.047 637.477 321.347 628.256 319.94C597.159 315.35 565.4 303.266 528.255 282.001C520.422 277.51 512.782 272.309 505.345 267.364C497.749 262.162 489.764 256.857 481.678 252.266C478.385 250.518 474.941 249.067 471.39 247.932C468.584 247.009 465.836 245.919 463.16 244.668C460.654 243.498 458.264 242.119 456.018 240.897C450.675 237.936 445.686 235.08 439.587 233.912C434.257 232.896 428.842 232.383 423.416 232.382C417.973 232.382 410.139 232.941 403.494 235.286C383.478 242.476 365.449 254.77 350.523 265.836C346.88 268.54 343.186 271.397 339.687 274.249C335.295 277.669 330.802 281.233 326.209 284.552C322.098 287.276 317.774 289.664 313.278 291.691C309.305 293.467 305.467 295.53 301.794 297.863C281.13 311.43 263.202 331.06 248.528 356.205C234.596 380.175 226.014 399.095 242.883 424.234C248.074 432.037 254.317 434.334 263.252 436.987C272.785 439.891 282.98 440.3 292.765 440.81C304.242 441.269 316.071 441.828 326.958 446.162C332.646 448.408 337.642 451.875 342.186 455.244C343.489 456.158 344.684 457.129 345.879 458.048C350.725 461.72 355.714 465.542 361.158 468.299C369.344 472.378 377.487 476.811 385.371 481.099C390.411 483.85 395.66 486.76 400.844 489.459C412.882 495.836 425.065 502.363 436.794 508.74C443.583 512.463 450.322 516.134 457.112 519.753L457.213 519.805C457.522 520.103 457.806 520.426 458.062 520.771C490.815 539.284 503.394 568.657 512.134 597.626C512.782 599.767 513.43 601.914 514.028 604.003C519.968 624.249 525.613 643.372 545.83 653.926C555.766 659.183 573.586 664.23 598.902 668.872C634.549 675.497 668.05 677.541 706.786 679.886L709.436 680.038C719.422 673.509 725.46 664.026 731.85 653.879C734.878 648.841 738.179 643.972 741.738 639.294C749.376 629.601 758.813 619.966 768.797 609.867C779.232 599.156 790.116 588.143 798.95 576.717C822.267 546.833 838.341 509.554 853.821 473.599C856.367 467.682 858.964 461.614 861.509 455.854C864.505 449.122 867.997 442.286 871.392 435.707C877.032 424.641 882.376 414.343 885.467 404.19C889.061 392.256 886.116 383.482 875.084 373.895L875.086 373.898ZM812.878 482.268L811.583 487.318C798.051 538.722 777.98 569.219 737.44 599.56L736.494 600.327C714.674 616.647 695.803 630.825 674.836 637.604C664.346 641.076 651.516 642.86 637.792 642.86H637.742C619.519 642.86 600.943 639.597 588.112 634.192C554.215 619.862 541.788 589.568 527.51 554.382C508.732 508.332 475.828 448.763 425.954 426.428C416.925 422.402 408.184 421.582 398.947 420.715C395.404 420.412 391.711 420.005 387.967 419.49C373.833 417.449 358.058 414.493 339.64 410.417C337.041 409.905 334.442 409.295 331.85 408.683C318.365 405.623 300.544 396.949 294.705 382.672C290.364 372.118 291.012 362.478 296.448 354.065C312.727 329.072 368.793 320.508 391.812 320.455H392.258C402.446 320.455 412.879 321.526 422.959 322.596C428.697 323.207 434.594 323.87 440.282 324.23C449.973 324.941 457.864 327.75 467.599 333.97C477.628 340.393 488.414 343.453 501.446 343.453C511.18 343.453 521.066 341.824 531.499 340.141C534.645 339.577 537.943 339.071 541.233 338.557C554.913 336.514 569.544 335.596 587.414 335.596C598.495 335.596 609.684 335.956 620.462 336.311C631.197 336.619 642.235 336.975 653.114 336.975C672.936 336.975 688.912 335.75 703.593 333.152C707.885 332.331 712.528 331.214 717.468 330.039C728.052 327.438 740.037 324.483 752.067 324.483C758.219 324.404 764.347 325.264 770.241 327.032C798.052 335.596 821.313 370.328 825.609 397.457C827.209 407.61 826.959 418.011 824.908 430.2C821.711 448.759 817.422 465.031 812.877 482.265L812.878 482.268ZM824.906 397.565C820.663 370.633 797.648 336.213 770.092 327.698C764.242 325.963 758.167 325.103 752.066 325.143C740.087 325.143 728.155 328.053 717.618 330.653C712.729 331.881 708.035 332.998 703.693 333.821C689.013 336.469 672.985 337.644 653.113 337.644C642.234 337.644 631.197 337.336 620.461 336.981C609.683 336.625 598.494 336.265 587.413 336.265C569.644 336.265 554.963 337.237 541.333 339.226C538.036 339.785 534.745 340.297 531.599 340.811C521.116 342.492 511.23 344.075 501.445 344.075C488.312 344.075 477.383 341.061 467.195 334.586C457.561 328.413 449.771 325.661 440.231 324.946C434.543 324.492 428.653 323.927 422.915 323.317C412.878 322.246 402.395 321.176 392.257 321.176H391.811C368.893 321.228 313.18 329.693 297.044 354.425C291.709 362.634 291.104 372.067 295.353 382.473C301.098 396.5 318.666 405.012 331.993 408.073C334.542 408.636 337.141 409.195 339.733 409.806C358.158 413.838 373.933 416.791 388.06 418.835C391.76 419.347 395.454 419.699 398.996 420.01C408.284 420.924 417.119 421.744 426.205 425.822C476.332 448.21 509.279 507.925 528.157 554.131C542.384 589.115 554.711 619.356 588.364 633.534C601.144 638.94 619.561 642.156 637.741 642.156H637.792C651.472 642.156 664.201 640.37 674.634 637.002C695.5 630.27 714.277 616.144 736.141 599.773L737.091 599.01C777.428 568.766 797.448 538.423 810.929 487.173L812.225 482.123C816.816 464.884 821.111 448.566 824.209 430.105C826.307 417.959 826.504 407.609 824.906 397.565ZM1045.83 65.8701C1044.68 75.4575 1043.23 93.2546 1046.47 105.187C1051.87 124.875 1067.45 141.806 1082.47 158.229C1103.74 181.327 1125.71 205.251 1118.97 237.223C1115.32 254.457 1106.24 265.167 1091.01 270.014C1077.83 274.243 1061.6 273.686 1043.33 272.666C1009.98 270.776 987.365 276.389 974.232 281.486C960.955 286.688 948.772 295.257 936.891 303.618C921.012 314.788 905.987 325.395 889.011 327.742C882.762 328.69 876.389 328.43 870.239 326.974C854.36 323.402 842.375 315.245 829.698 306.576C808.129 291.938 785.865 276.742 742.63 285.562C733.141 287.453 723.709 290.356 713.719 293.369C681.867 303.004 648.919 312.9 612.077 292.957C578.777 275.875 557.803 244.511 537.586 214.164C528.154 200.038 518.369 185.354 507.583 172.502C493.752 156.079 474.924 133.592 451.812 141.394C442.531 144.454 432.948 145.984 423.653 147.462C408.929 149.859 393.751 152.308 380.071 161.076C370.286 167.353 362.698 176.278 355.311 184.947C351.862 188.973 348.269 193.156 344.525 197.031C336.238 205.548 329.549 215.595 323.054 225.283C317.51 233.544 311.823 242.014 305.134 249.613C296.148 257.717 288.264 264.807 279.077 273.274C267.989 283.625 257.851 295.918 248.066 307.746C229.303 330.546 211.627 352.015 188.508 358.949C172.186 363.895 155.309 363.231 133.788 356.908C122.311 353.492 107.134 346.912 96.4489 341.914C73.8265 331.324 52.0309 319.051 31.2457 305.198C16.3046 295.06 4.72559 280.696 -2.01111 263.943V262.157C4.55713 279.409 16.2736 294.222 31.5481 304.587C52.3387 318.427 74.131 330.7 96.7441 341.304C107.379 346.249 122.506 352.882 133.939 356.249C155.41 362.521 172.135 363.185 188.306 358.338C211.224 351.455 228.85 330.034 247.57 307.338C257.354 295.509 267.492 283.165 278.674 272.814C287.861 264.297 295.702 257.158 304.687 249.1C311.326 241.602 316.963 233.089 322.507 224.874C328.995 215.188 335.791 205.144 344.028 196.57C347.823 192.696 351.365 188.512 354.807 184.434C362.201 175.765 369.84 166.792 379.719 160.517C393.507 151.644 408.778 149.195 423.559 146.85C432.84 145.32 442.43 143.79 451.567 140.729C475.126 132.822 494.198 155.466 508.08 172.041C518.916 184.998 528.651 199.583 538.133 213.756C558.358 244.102 579.223 275.414 612.322 292.345C648.97 312.183 681.816 302.288 713.568 292.705C723.556 289.692 732.993 286.84 742.527 284.897C785.968 276.085 808.384 291.279 830.049 306.016C842.682 314.638 854.614 322.748 870.441 326.315C876.495 327.734 882.766 327.977 888.912 327.031C905.688 324.785 920.716 314.231 936.538 303.008C948.374 294.695 960.705 286.026 974.033 280.824C987.166 275.728 1009.88 270.067 1043.38 271.952C1074.68 273.738 1110.23 275.775 1118.37 237.069C1124.96 205.456 1103.14 181.635 1082.02 158.636C1066.89 142.161 1051.27 125.178 1045.88 105.344C1042.73 93.9704 1043.73 77.5486 1045.13 65.7707C1047.42 46.8459 1052.86 27.4192 1058.66 6.91661C1059.26 4.7232 1059.86 2.52979 1060.5 0.284532H1061.2C1060.56 2.58236 1059.91 4.82762 1059.26 7.1204C1053.51 27.623 1048.02 46.9503 1045.83 65.8701Z" fill="black" fill-opacity="0.3"/>
</g>
<defs>
<clipPath id="clip0">
<rect width="1440" height="903" fill="white" transform="matrix(-1 0 0 1 1438 0)"/>
</clipPath>
</defs>
</svg>
