<svg width="1439" height="903" viewBox="0 0 1439 903" fill="none" xmlns="http://www.w3.org/2000/svg">
<g clip-path="url(#clip0)">
<path fill-rule="evenodd" clip-rule="evenodd" d="M738.989 873.696C737.645 872.521 736.392 871.147 735.145 869.868C734.058 868.606 732.892 867.415 731.653 866.301C709.488 846.055 685.872 834.937 665.302 834.937C644.933 834.937 627.71 845.24 614.124 865.534C606.576 876.955 600.899 889.506 597.305 902.716H598.003C601.602 889.654 607.211 877.232 614.628 865.894C628.157 845.852 645.185 835.601 665.302 835.601C685.721 835.601 709.135 846.719 731.254 866.761C732.399 867.832 733.499 869.054 734.694 870.328C735.942 871.654 737.24 872.981 738.539 874.255C748.475 883.133 759.157 891.289 769.494 899.196C771.043 900.365 772.541 901.489 774.085 902.716H775.184C773.436 901.337 771.641 900.01 769.842 898.632C759.511 890.731 748.877 882.569 738.989 873.696ZM1396.71 807.96C1382.33 821.626 1367.45 835.804 1357.91 856.05C1353.12 866.353 1348.37 882.621 1346.18 902.712H1346.87C1349.02 882.716 1353.77 866.554 1358.51 856.303C1367.95 836.26 1382.77 822.134 1397.15 808.467C1413.88 792.559 1431.15 776.188 1439.69 750.281C1439.99 749.516 1440.24 748.733 1440.44 747.935V745.638C1440.04 747.168 1439.54 748.651 1439.09 750.024C1430.56 775.78 1413.33 792.152 1396.71 807.96H1396.71ZM670.19 866.453C663.156 866.453 656.316 868.955 650.023 873.848C644.134 878.384 641.239 883.028 638.186 887.822C636.941 889.863 635.594 891.952 634.046 894.094C632.859 896.904 631.842 899.783 631.001 902.716H631.699C632.549 899.907 633.499 897.154 634.594 894.501C636.09 892.47 637.475 890.359 638.741 888.177C641.736 883.383 644.63 878.897 650.369 874.412C656.669 869.565 663.257 867.116 670.19 867.116C688.716 867.116 706.493 883.947 722.165 898.736C723.612 900.11 724.961 901.389 726.357 902.716H727.359C725.81 901.232 724.263 899.807 722.666 898.277C706.889 883.336 688.968 866.453 670.19 866.453ZM1428.31 688.575C1424.96 706.221 1421.86 722.895 1417.07 734.676C1408.99 754.767 1392.16 771.65 1374.39 789.551C1363.4 800.512 1352.12 811.834 1342.59 824.332C1330.66 839.886 1322.67 853.346 1315.98 869.258C1312.03 878.642 1308.63 889.452 1305.34 899.906C1305.04 900.825 1304.69 901.797 1304.44 902.715H1305.14C1305.39 901.851 1305.69 900.981 1305.99 900.109C1309.24 889.66 1312.63 878.844 1316.58 869.512C1323.26 853.652 1331.2 840.242 1343.13 824.736C1352.67 812.344 1363.95 800.973 1374.84 790.057C1392.71 772.054 1409.59 755.126 1417.72 734.931C1422.51 723.098 1425.66 706.371 1428.96 688.673C1432.15 671.638 1435.45 653.998 1440.34 641.147C1440.39 641.052 1440.43 640.947 1440.44 640.838V639.053C1440.22 639.678 1439.97 640.291 1439.69 640.891C1434.75 653.843 1431.45 671.489 1428.31 688.575ZM1373.79 468.67C1350.57 459.186 1321.72 447.457 1310.68 423.435C1309.93 410.329 1314.43 399.163 1319.22 387.381C1325.96 370.859 1333.6 352.142 1329.31 322.867C1326.01 300.636 1313.23 286.353 1298.4 269.83C1292.26 263 1286.02 255.96 1280.03 247.955C1264.4 226.94 1253.72 203.227 1245.43 182.775C1237.09 162.432 1230.56 146.367 1208.68 141.009C1195.61 137.798 1177.33 135.551 1164.8 134.226C1158.44 133.491 1152.04 133.102 1145.63 133.059C1135.99 133.059 1127.71 134.125 1120.72 136.213C1105.89 140.707 1096.45 153.049 1084.57 168.654C1081.03 173.291 1077.39 178.036 1073.24 183.085C1070.44 186.552 1066.75 190.328 1062.8 194.406C1054.61 202.819 1046.18 211.54 1043.83 218.53C1042.98 221.23 1043.24 223.679 1043.43 226.483C1043.72 228.905 1043.77 231.347 1043.58 233.778L1043.53 233.93L1043.63 234.031C1051.57 244.736 1061.21 253.306 1070.54 261.672C1086.37 275.845 1101.4 289.208 1107.04 311.189C1110.03 322.766 1108.93 335.159 1103.74 349.081C1098.2 363.765 1085.32 379.933 1067.35 394.519C1059.26 401.098 1050.67 407.929 1041.59 415.225C999.901 448.421 952.619 486.058 926.806 518.853L926.761 519.057C925.912 523.083 926.209 527.673 927.359 532.723C930.702 546.494 941.239 562.861 956.315 577.65C970.691 591.677 987.02 602.184 1000.05 605.855C1001.1 606.158 1003.15 606.719 1005.34 607.181C1022.71 611.155 1040.74 608.405 1058.11 605.75C1073.14 603.458 1087.42 601.264 1101.25 603.097C1131.15 607.13 1152.67 627.581 1160.26 659.199C1170.25 700.71 1142.63 726.769 1115.93 752.013C1096.25 770.677 1075.84 789.905 1070.5 815.3C1065.4 839.218 1072.04 865.026 1076.44 882.107C1078.18 888.995 1080.33 895.878 1082.63 902.714H1083.33C1080.98 895.826 1078.89 888.888 1077.09 881.903C1072.74 864.921 1066.1 839.218 1071.15 815.456C1076.44 790.259 1096.76 771.084 1116.43 752.524C1143.23 727.176 1170.99 700.965 1160.91 659.042C1153.27 627.171 1131.46 606.517 1101.3 602.485C1087.42 600.653 1073.15 602.794 1058.02 605.086C1040.69 607.739 1022.77 610.444 1005.49 606.517C1003.35 606.058 1001.25 605.494 1000.2 605.191C974.339 597.947 935.198 562.249 928.058 532.618C926.854 528.27 926.616 523.711 927.36 519.261C953.173 486.518 1000.35 448.882 1041.99 415.737C1051.13 408.494 1059.71 401.658 1067.8 395.083C1085.82 380.393 1098.8 364.178 1104.34 349.285C1109.58 335.259 1110.68 322.767 1107.69 311.038C1101.95 288.855 1086.92 275.339 1071 261.109C1061.71 252.848 1052.17 244.283 1044.23 233.724C1044.41 231.296 1044.37 228.857 1044.14 226.434C1043.83 223.677 1043.63 221.332 1044.48 218.784C1046.78 211.948 1055.12 203.23 1063.31 194.866C1067.2 190.833 1070.95 187.012 1073.74 183.544C1077.88 178.548 1081.58 173.751 1085.12 169.057C1096.96 153.56 1106.29 141.319 1120.92 136.876C1132.05 133.513 1146.38 132.851 1164.71 134.888C1177.29 136.271 1195.51 138.51 1208.54 141.672C1230.06 146.871 1236.59 162.835 1244.83 183.033C1253.17 203.535 1263.8 227.301 1279.48 248.417C1285.47 256.423 1291.76 263.457 1297.86 270.293C1312.63 286.716 1325.36 300.942 1328.61 322.974C1332.9 352.04 1325.31 370.658 1318.62 387.129C1313.83 399.01 1309.24 410.231 1309.99 423.542L1310.03 423.694C1321.22 447.92 1350.23 459.8 1373.54 469.237C1379.88 471.837 1386.42 474.493 1393.56 476.067C1408.97 479.505 1424.66 481.587 1440.44 482.289V481.573C1424.71 480.913 1409.07 478.847 1393.71 475.401C1386.62 473.871 1380.08 471.223 1373.79 468.67ZM1035.15 882.876C1033.35 875.837 1031.25 868.797 1029.21 861.914C1024.81 846.77 1020.67 832.441 1019.02 819.635C1017.77 810.507 1017.77 801.076 1018.97 794.496C1022.42 774.709 1035.44 759.309 1048.03 744.363C1062.46 727.282 1077.39 709.531 1078.53 684.903C1076.98 662.971 1052.77 659.759 1027.16 656.443C1022.46 655.78 1017.57 655.168 1012.88 654.406C994.111 651.346 972.49 645.225 950.375 636.763C942.635 633.755 935.196 630.032 927.957 626.408C914.179 619.423 901.148 612.794 885.918 611.06C883.945 610.853 881.962 610.75 879.978 610.751C869.646 610.751 860.659 613.712 852.969 616.516C845.183 619.321 838.491 622.329 832.003 625.337C818.073 631.609 804.944 637.525 784.673 639.364C781.041 639.754 777.391 639.941 773.738 639.922C751.72 639.922 733.3 634.005 715.428 628.298C700.049 623.3 685.426 618.658 670.298 618.658C667.342 618.636 664.387 618.823 661.457 619.217C638.489 622.178 620.82 634.314 607.536 656.398C595.8 675.877 589.068 700.51 583.423 724.224C581.774 731.159 578.88 744.162 577.886 753.599C576.886 762.471 578.232 768.946 582.077 773.438C589.018 781.647 602.942 782.159 619.07 782.666C626.414 782.921 633.945 783.177 641.484 784.195C673.243 788.378 699.847 792.561 729.307 805.157C753.571 815.46 777.835 828.359 793.958 837.284C821.016 852.431 851.671 871.147 873.288 902.716H874.085C852.368 870.839 821.566 851.867 794.256 836.671C778.178 827.694 753.915 814.842 729.6 804.492C700.096 791.948 673.384 787.713 641.582 783.483C634.044 782.511 626.455 782.259 619.118 781.953C603.141 781.441 589.31 780.981 582.52 772.976C578.877 768.642 577.531 762.319 578.524 753.649C579.575 744.264 582.419 731.308 584.068 724.373C595.25 677.201 611.328 626.306 661.555 619.878C664.455 619.53 667.374 619.362 670.295 619.374C685.315 619.374 699.844 624.011 715.274 628.962C733.149 634.669 751.62 640.586 773.738 640.586C777.383 640.586 781.082 640.435 784.719 640.082C805.095 638.244 818.271 632.228 832.249 625.904C838.742 622.995 845.428 619.935 853.168 617.131C860.806 614.378 869.794 611.47 879.978 611.47C881.929 611.469 883.88 611.571 885.821 611.778C900.897 613.46 913.877 620.039 927.653 626.972C934.892 630.644 942.336 634.418 950.122 637.374C972.288 645.889 993.96 652.01 1012.73 655.071C1017.47 655.834 1022.37 656.497 1027.06 657.061C1052.37 660.424 1076.34 663.588 1077.88 684.952C1076.73 709.23 1061.85 726.876 1047.53 743.958C1034.84 758.899 1021.81 774.455 1018.27 794.346C1017.07 801.026 1017.17 810.51 1018.32 819.742C1020.02 832.646 1024.21 846.923 1028.61 862.068C1030.6 868.955 1032.65 876.094 1034.55 883.081C1035.74 887.618 1036.99 892.262 1038.29 896.748C1038.84 898.686 1039.34 900.727 1039.94 902.717H1040.64C1040.04 900.623 1039.44 898.587 1038.94 896.544C1037.64 892.055 1036.39 887.467 1035.15 882.876ZM1393.91 857.377C1387.12 868.134 1381.03 881.09 1380.93 902.716H1381.58C1381.73 881.294 1387.72 868.39 1394.46 857.732C1403.05 844.217 1415.43 836.112 1428.61 827.488C1432.55 824.888 1436.54 822.287 1440.44 819.483V818.667C1436.44 821.524 1432.3 824.224 1428.25 826.877C1415.08 835.548 1402.6 843.71 1393.91 857.377ZM991.411 841.569C987.368 832.284 983.124 822.801 981.729 812.858C977.782 785.624 991.56 767.924 1004.84 750.74C1013.98 739.063 1022.51 728.044 1025.16 714.479C1025.69 711.773 1025.8 709.005 1025.51 706.264C1025.41 704.839 1025.31 703.312 1025.31 701.22V701.115C1021.92 691.476 1011.78 684.692 1003.84 680.717C975.188 666.231 928.504 659.402 894.456 654.403C889.313 653.668 884.125 653.293 878.93 653.28C865.699 653.28 853.419 655.573 840.439 657.969C826.559 660.524 812.183 663.226 795.604 663.226C791.212 663.226 786.718 663.022 782.378 662.667C781.478 662.563 778.978 662.412 775.783 662.208C771.09 661.952 765.199 661.644 761.059 661.288C747.179 660.218 736.194 657.717 725.611 655.273C711.432 652.056 698.155 649.001 678.427 649.001C676.382 649.001 674.237 649.048 672.091 649.1C656.417 651.602 642.031 668.479 636.293 691.123C631.555 709.839 632.65 734.728 649.922 748.493C670.241 764.662 729.455 778.84 761.259 781.441C768.049 782.051 773.687 782.104 779.131 782.104C785.221 782.156 791.463 782.203 799.651 782.918C821.573 784.961 839.691 793.78 860.314 812.442C885.825 835.598 899.654 853.499 919.426 888.942C921.808 893.355 923.81 897.963 925.411 902.716H926.163C924.501 897.855 922.43 893.145 919.971 888.636C900.197 853.097 886.368 835.193 860.71 811.939C840.04 793.17 821.768 784.297 799.699 782.256C791.514 781.493 785.221 781.441 779.131 781.441C773.436 781.389 768.1 781.337 761.305 780.778C729.603 778.125 670.594 764.051 650.275 747.935C633.298 734.421 632.297 709.788 636.941 691.275C642.586 668.94 656.813 652.266 672.192 649.764C674.287 649.712 676.382 649.665 678.427 649.665C698.004 649.665 711.382 652.772 725.463 655.937C736.096 658.381 747.077 660.882 761.008 661.952C765.15 662.261 771.044 662.668 775.737 662.924C778.932 663.076 781.425 663.227 782.327 663.279C786.739 663.713 791.17 663.917 795.604 663.89C812.229 663.89 826.661 661.237 840.536 658.633C853.521 656.237 865.75 653.997 878.93 653.997C884.093 653.964 889.25 654.322 894.359 655.067C928.356 660.064 974.985 666.848 1003.54 681.329C1011.33 685.204 1021.32 691.883 1024.61 701.32C1024.66 703.361 1024.76 704.892 1024.81 706.317C1025.18 709 1025.08 711.726 1024.51 714.375C1021.87 727.686 1013.38 738.7 1004.34 750.33C990.915 767.568 977.081 785.418 981.079 812.954C982.526 822.949 986.718 832.59 990.813 841.817C992.408 845.441 994.111 849.212 995.558 852.987C1000.8 866.301 1006.94 884.206 1010.83 902.716H1011.48C1007.53 884.098 1001.39 866.045 996.155 852.682C994.709 848.964 993.057 845.188 991.411 841.569ZM1371.24 566.538C1362 577.04 1353.82 588.263 1345.13 600.091C1331.35 618.86 1317.12 638.239 1298.75 654.25C1297.45 655.474 1296.16 656.804 1294.95 658.13C1293.86 659.354 1292.66 660.574 1291.46 661.697C1279.48 672.512 1265.75 681.18 1252.52 689.489C1243.33 695.306 1233.8 701.27 1224.86 708.002C1217.77 713.36 1210.63 718.968 1203.79 724.373C1193.36 732.635 1182.57 741.1 1171.69 748.751C1166.55 752.369 1161.21 755.842 1155.52 759.513C1127.76 777.613 1096.3 798.115 1091.51 835.195C1088.96 854.782 1094.01 880.022 1104.74 902.718H1105.44C1094.7 880.074 1089.66 854.831 1092.16 835.245C1096.95 798.476 1128.25 778.069 1155.91 760.124C1161.55 756.451 1166.89 752.933 1172.04 749.36C1182.97 741.663 1193.75 733.146 1204.14 724.936C1211.03 719.526 1218.12 713.919 1225.31 708.565C1234.2 701.886 1243.68 695.865 1252.87 690.104C1266.15 681.687 1279.88 673.018 1291.86 662.208C1293.16 661.085 1294.31 659.76 1295.46 658.584C1296.63 657.253 1297.88 655.994 1299.2 654.813C1317.63 638.75 1331.9 619.318 1345.63 600.55C1354.32 588.67 1362.56 577.5 1371.74 567.045C1389.69 546.513 1413.78 532.313 1440.44 526.552V525.842C1413.62 531.66 1389.36 545.923 1371.24 566.538ZM1412.18 592.952C1403.24 606.264 1403.19 630.437 1404.14 650.02C1404.89 665.827 1404.64 696.017 1394.51 721.11C1386.67 740.285 1368.1 757.372 1350.12 773.79C1347.38 776.339 1344.68 778.84 1342.03 781.337C1306.03 814.842 1288.16 844.985 1272.44 879.817C1271.09 882.769 1269.94 885.937 1268.79 888.997C1267.42 892.903 1265.83 896.732 1264.05 900.47C1263.7 901.233 1263.3 902.001 1262.95 902.716H1263.7C1264 902.052 1264.35 901.436 1264.7 900.825C1266.46 897.048 1268.03 893.183 1269.39 889.246C1270.55 886.186 1271.69 883.079 1273.09 880.118C1288.77 845.286 1306.54 815.248 1342.49 781.795C1345.13 779.298 1347.88 776.849 1350.57 774.348C1368.59 757.829 1387.27 740.744 1395.11 721.365C1405.29 696.173 1405.54 665.827 1404.79 650.02C1403.84 630.489 1403.94 606.467 1412.73 593.307C1419.12 583.876 1429.3 577.145 1440.44 571.379V570.617C1429.1 576.481 1418.72 583.265 1412.18 592.952H1412.18ZM1430.5 884C1426.16 888.584 1424.31 895.729 1424.31 902.716H1425.06C1425.06 895.828 1426.91 888.793 1430.95 884.454C1433.8 881.445 1437.04 879.813 1440.44 879.813V879.15C1436.9 879.153 1433.45 880.835 1430.5 884ZM1225.41 891.9C1234.9 880.48 1241.84 864.87 1248.53 849.775C1249.57 847.477 1250.58 845.238 1251.57 842.939C1261.36 821.418 1273.49 794.593 1286.77 776.288C1293.96 766.288 1305.84 759.103 1318.42 751.499C1336.24 740.741 1354.67 729.571 1361.86 709.069C1364.45 701.674 1364.5 693.57 1361.96 683.418C1359.46 677.756 1355.12 674.9 1349.13 674.9C1339.24 674.9 1327.56 682.707 1322.77 686.885C1313.23 695.099 1304.84 706.468 1296.81 717.539C1292.46 723.404 1288.02 729.571 1283.42 735.182C1281.18 737.788 1273.49 746.759 1267.05 750.634C1251.77 759.815 1232.2 766.854 1211.48 774.301C1182.67 784.598 1152.97 795.256 1134.45 812.601C1124.56 821.674 1118.72 835.954 1118.22 851.662C1117.77 868.493 1123.46 884.453 1134.4 896.693C1136.33 898.864 1138.43 900.878 1140.69 902.716H1141.79C1139.32 900.725 1137.02 898.543 1134.9 896.188C1124.04 883.976 1118.32 868.045 1118.92 851.716C1119.32 836.211 1125.16 822.084 1134.85 813.108C1153.32 795.922 1183.03 785.264 1211.68 774.967C1232.45 767.521 1252.02 760.481 1267.35 751.254C1273.99 747.221 1281.68 738.245 1283.87 735.597C1288.57 730.035 1293.01 723.86 1297.35 717.899C1305.39 706.932 1313.68 695.611 1323.17 687.454C1327.91 683.323 1339.44 675.572 1349.13 675.572C1354.87 675.572 1358.96 678.277 1361.36 683.682C1363.8 693.578 1363.75 701.584 1361.21 708.874C1354.12 729.12 1335.79 740.186 1318.07 750.896C1305.44 758.547 1293.51 765.79 1286.17 775.937C1272.94 794.245 1260.81 821.124 1250.97 842.644C1249.97 844.937 1248.98 847.235 1247.93 849.527C1241.24 864.568 1234.3 880.072 1224.86 891.441C1221.31 895.733 1217.2 899.525 1212.63 902.716H1213.78C1218.09 899.608 1222 895.975 1225.41 891.9ZM961.407 717.438L961.356 717.333C960.16 716.06 959.459 714.279 958.81 712.545L958.661 712.185L958.559 711.981C953.667 707.339 946.382 704.738 937.992 704.738C926.06 704.738 914.232 709.892 908.438 717.49C906.755 719.618 905.583 722.103 905.011 724.755C904.44 727.407 904.484 730.154 905.141 732.786C907.687 742.886 917.124 746.202 927.41 748.902L927.456 748.954L927.504 748.9C944.978 746.299 963.05 735.39 961.404 717.541V717.436L961.407 717.438ZM927.504 748.239C917.424 745.539 908.28 742.374 905.787 732.635C905.151 730.098 905.108 727.449 905.663 724.893C906.217 722.337 907.353 719.943 908.982 717.898C914.626 710.451 926.308 705.401 937.989 705.401C946.179 705.401 953.316 707.955 958.061 712.493L958.158 712.749C958.858 714.529 959.558 716.368 960.755 717.746C962.455 737.58 939.792 746.353 927.504 748.239ZM780.525 705.709L780.274 705.25L780.177 705.198C769.441 698.314 751.671 693.724 735.991 693.724C725.659 693.724 707.635 695.813 702.943 710.044V710.096C702.881 712.527 703.32 714.945 704.231 717.199C705.143 719.454 706.508 721.497 708.242 723.202C715.025 730.34 728.555 734.723 743.484 734.723C762.404 734.723 782.823 727.277 783.125 710.753V710.649L782.976 710.549C781.856 709.109 781.024 707.465 780.528 705.709H780.525ZM743.481 734.066C728.752 734.066 715.375 729.679 708.679 722.744C707.043 721.093 705.751 719.133 704.877 716.979C704.004 714.825 703.565 712.52 703.588 710.195C708.182 696.429 725.908 694.388 735.988 694.388C751.514 694.388 769.036 698.924 779.775 705.709L779.872 706.017C780.573 707.751 781.222 709.584 782.418 710.914C782.076 726.822 762.006 734.066 743.484 734.066H743.481ZM1256.02 380.039C1259.81 363.464 1263.76 346.226 1262.16 320.522C1249.52 275.797 1234.6 242.038 1216.68 217.201C1212.48 211.436 1207.34 204.862 1200.85 199.559C1191.56 191.96 1178.33 187.474 1165.6 187.474C1152.77 187.474 1141.79 191.96 1134.7 200.274C1126.81 209.402 1123.91 222.557 1126.06 239.335C1127.31 248.72 1130.66 258.616 1133.95 268.204C1137.25 277.74 1140.64 287.583 1141.84 296.962C1146.68 333.429 1131.4 371.217 1101.15 397.992C1088.32 409.418 1075.04 418.646 1062.3 427.571C1048.47 437.31 1034.2 447.357 1020.67 459.903C1000.1 478.922 976.836 500.547 972.991 533.137V533.288C975.435 548.694 980.128 564.553 997.306 575.875C1007.04 582.35 1017.82 585.358 1031.2 585.358C1042.64 585.358 1054.37 583.165 1066.85 580.872C1080.28 578.424 1094.16 575.875 1108.59 575.875C1112.13 575.875 1115.63 576.026 1118.97 576.282C1125.81 576.945 1134.45 579.087 1143.48 581.379C1155.67 584.392 1168.3 587.551 1178.28 587.551C1180.21 587.566 1182.13 587.412 1184.02 587.092C1197.5 585.004 1211.78 573.07 1222.71 562.918C1240.94 546.041 1258.11 528.447 1260.96 513.96C1262.06 508.3 1261.71 499.224 1261.01 492.646C1260.01 482.651 1257.86 474.185 1255.87 466.023C1252.32 451.443 1248.63 436.346 1250.42 412.225C1251.32 400.489 1253.57 390.494 1256.02 380.039ZM1255.22 466.173C1257.21 474.331 1259.31 482.795 1260.31 492.692C1261.01 499.272 1261.36 508.246 1260.31 513.805C1257.51 528.135 1240.39 545.629 1222.26 562.455C1211.38 572.502 1197.2 584.335 1183.92 586.477C1182.05 586.735 1180.17 586.854 1178.28 586.832C1168.35 586.832 1155.77 583.725 1143.64 580.664C1134.55 578.419 1125.91 576.278 1119.07 575.614C1115.68 575.306 1112.18 575.153 1108.59 575.155C1094.11 575.155 1080.18 577.703 1066.75 580.252C1054.27 582.497 1042.54 584.69 1031.2 584.69C1017.97 584.69 1007.29 581.683 997.605 575.306C980.685 564.089 976.087 548.485 973.643 533.132C977.487 500.849 1000.6 479.38 1021.07 460.361C1034.65 447.864 1048.88 437.869 1062.66 428.177C1075.49 419.205 1088.67 409.92 1101.6 398.447C1132.06 371.574 1147.38 333.577 1142.54 296.86C1141.29 287.427 1137.9 277.585 1134.6 267.997C1131.3 258.456 1127.91 248.566 1126.76 239.234C1124.56 222.659 1127.46 209.702 1135.25 200.678C1142.19 192.568 1152.92 188.134 1165.6 188.134C1178.18 188.134 1191.21 192.621 1200.45 200.067C1206.84 205.324 1211.98 211.895 1216.12 217.609C1234.05 242.341 1248.88 276.055 1261.51 320.673C1263.11 346.173 1259.16 363.36 1255.31 379.835C1252.87 390.389 1250.62 400.385 1249.77 412.168C1247.98 436.392 1251.62 451.536 1255.22 466.173ZM1214.28 381.772C1213.58 378.765 1213.13 375.704 1212.58 372.339C1210.78 360.61 1208.64 347.2 1196.86 340.875L1196.75 340.823H1196.66C1182.33 341.842 1173.29 354.897 1163.7 368.668C1160.26 373.561 1156.77 378.663 1152.98 383.102C1131.86 408.038 1108.04 424.561 1085.03 440.572C1068.85 451.846 1053.53 462.505 1039.99 475.404C1035.65 477.597 1032.7 481.425 1029.91 485.096C1027.76 487.848 1025.57 490.809 1022.67 493.05C1010.29 508.862 1006.2 527.375 1012.23 540.122C1016.03 548.18 1025.51 557.82 1049.18 557.82C1052.38 557.82 1055.72 557.616 1059.16 557.309C1066.76 556.541 1075.49 554.912 1084.63 553.178C1094.81 551.292 1106.35 549.145 1117.98 547.872C1120.42 547.616 1122.72 547.413 1125.02 547.109C1156.07 543.945 1174.79 541.908 1193.47 519.468C1206.74 503.405 1213.83 483.566 1215.83 456.943C1217.03 439.909 1216.08 421.245 1215.23 404.826C1214.78 396.562 1214.38 388.76 1214.28 381.772ZM1215.13 456.888C1213.18 483.36 1206.09 503.042 1192.96 518.954C1174.49 541.341 1156.91 543.127 1124.96 546.496C1122.67 546.7 1120.37 546.955 1117.92 547.206C1106.24 548.485 1094.71 550.626 1084.52 552.511C1075.39 554.193 1066.7 555.88 1059.11 556.59C1055.81 556.949 1052.49 557.137 1049.17 557.154C1025.85 557.154 1016.52 547.721 1012.78 539.811C1006.93 527.268 1010.93 509.063 1023.11 493.559C1026.01 491.261 1028.25 488.357 1030.45 485.553C1033.35 481.678 1036.05 478.106 1040.29 476.017L1040.39 475.965C1053.92 463.009 1069.25 452.35 1085.42 441.133C1108.49 425.07 1132.25 408.547 1153.47 383.506C1157.26 379.12 1160.76 374.018 1164.2 369.072C1173.69 355.458 1182.63 342.554 1196.6 341.536C1208.08 347.703 1210.03 360.299 1211.93 372.441C1212.48 375.804 1212.93 378.916 1213.58 381.874C1213.68 388.809 1214.13 396.564 1214.53 404.826C1215.38 421.242 1216.37 439.906 1215.13 456.888H1215.13ZM782.528 463.113C777.436 414.667 772.641 368.869 735.648 336.126C710.785 314.145 670.595 290.74 632.104 290.74C608.639 290.74 589.372 299.612 574.785 317.159C562.206 332.408 555.719 350.205 548.274 370.859C547.475 373.151 546.633 375.449 545.783 377.844C544.285 381.818 542.838 385.745 541.391 389.624C533.104 411.96 525.263 432.968 523.319 450.463C518.97 488.966 532.65 504.47 549.577 519.463C575.937 542.77 610.237 544.504 646.583 546.389C655.173 546.849 665.353 547.767 676.081 548.786C693.009 550.37 712.132 552.102 728.158 552.102C745.433 552.102 756.767 550.112 762.906 545.93C788.668 528.488 785.575 486.109 783.126 468.772L782.528 463.113ZM762.559 545.321C756.516 549.451 745.284 551.441 728.158 551.441C712.182 551.441 693.009 549.655 676.132 548.073C665.404 547.106 655.216 546.135 646.633 545.728C610.389 543.895 576.181 542.109 550.024 518.954C533.197 504.112 519.669 488.71 523.967 450.517C525.911 433.174 533.752 412.166 541.989 389.878C543.436 385.95 544.933 382.029 546.33 378.05C547.23 375.752 548.073 373.407 548.879 371.065C556.317 350.51 562.761 332.766 575.332 317.569C589.717 300.179 608.783 291.357 632.104 291.357C670.343 291.357 710.483 314.768 735.198 336.696C772.042 369.183 776.786 414.877 781.827 463.172L782.475 468.88C784.97 486.111 787.968 528.135 762.558 545.321H762.559ZM747.181 455.155C742.738 413.341 738.94 377.234 705.789 350.461C690.417 337.964 662.61 323.378 635.099 323.378C621.419 323.378 609.885 326.998 600.748 334.189C574.893 354.639 563.653 397.173 561.861 427.362C559.809 462.246 572.344 492.895 595.355 509.214C616.473 524.26 643.336 525.789 671.841 527.372C678.083 527.675 684.275 528.03 690.467 528.03C708.337 528.03 730.403 525.738 741.691 507.94C748.178 494.425 747.779 478.565 747.329 463.264C747.276 460.513 747.23 457.86 747.179 455.155H747.181ZM741.087 507.632C730.004 525.074 708.183 527.372 690.467 527.372C684.275 527.372 678.133 527.064 671.841 526.656C643.53 525.072 616.725 523.649 595.708 508.703C572.941 492.488 560.507 462.041 562.552 427.414C564.301 397.324 575.49 354.999 601.201 334.7C610.187 327.613 621.563 323.989 635.099 323.989C662.409 323.989 690.064 338.575 705.443 351.019C738.291 377.642 741.935 411.91 746.483 455.207C746.534 457.86 746.585 460.513 746.734 463.265C747.077 478.514 747.476 494.274 741.086 507.632H741.087ZM1154.42 461.839L1154.27 461.735C1153.28 460.994 1152.37 460.139 1151.57 459.186C1150.62 458.014 1149.47 457.013 1148.18 456.225L1148.13 456.179H1147.98C1129.06 459.593 1107.54 469.644 1091.82 482.336C1085.57 487.386 1078.28 494.274 1076.84 502.89L1076.79 503.042L1076.89 503.199C1077.83 504.452 1078.86 505.628 1079.99 506.713C1080.84 507.533 1081.64 508.298 1082.38 509.162L1082.44 509.318H1082.58C1085.54 509.627 1088.5 509.778 1091.47 509.772C1107.95 509.772 1130.42 504.676 1143.89 490.446C1151.28 482.544 1154.83 473.004 1154.43 461.99V461.838L1154.42 461.839ZM1143.39 489.986C1130.1 504.112 1107.84 509.108 1091.46 509.108C1088.56 509.114 1085.66 508.962 1082.77 508.653C1082.03 507.789 1081.23 506.967 1080.48 506.205C1079.37 505.222 1078.38 504.109 1077.53 502.889C1078.98 494.524 1086.12 487.793 1092.21 482.896C1107.84 470.248 1129.2 460.253 1147.98 456.838C1149.13 457.588 1150.16 458.517 1151.02 459.59C1151.84 460.533 1152.75 461.403 1153.72 462.191C1154.07 472.905 1150.68 482.237 1143.39 489.986ZM677.88 369.481C666.799 362.136 654.415 358.16 642.931 358.16C627.804 358.16 615.125 364.839 606.089 377.539C585.122 407.063 594.605 462.911 624.665 486.113C632.801 492.489 646.726 500.035 666.648 500.035C671.455 500.035 676.252 499.608 680.983 498.761C702 495.142 712.93 478.159 712.577 449.751C712.282 428.177 707.342 389.011 677.88 369.481ZM680.875 498.098C676.175 498.902 671.416 499.311 666.648 499.322C646.927 499.322 633.146 491.881 625.01 485.604C610.833 474.586 600.595 455.775 596.952 433.841C593.359 412.425 597.002 391.572 606.686 377.896C615.528 365.405 628.106 358.877 642.931 358.877C654.271 358.877 666.598 362.804 677.534 370.047C706.687 389.375 711.583 428.285 711.878 449.753C712.282 477.798 701.496 494.524 680.875 498.097V498.098ZM1356.42 179.102C1353.67 174.011 1351.02 169.107 1347.88 165.082L1347.73 164.931C1343.39 159.17 1336 149.578 1325.71 151.163C1314.63 152.84 1300 166.306 1302.64 186.093C1304.74 201.9 1315.12 213.478 1335.35 222.507C1336.64 223.066 1337.94 223.677 1339.29 224.241C1349.02 228.417 1358.26 232.398 1362.51 241.883C1366.9 260.646 1367.75 285.942 1368.7 312.821C1369.44 335.056 1370.25 358.104 1373.19 377.741C1378.83 415.634 1397.8 438.173 1431.21 446.794C1434.24 447.62 1437.33 448.267 1440.44 448.731V448.016C1437.37 447.568 1434.34 446.938 1431.35 446.131C1398.25 437.666 1379.43 415.226 1373.84 377.642C1370.94 358.006 1370.14 335.008 1369.35 312.772C1368.45 285.894 1367.55 260.55 1363.15 241.63C1358.76 231.837 1349.42 227.86 1339.54 223.628C1338.19 223.017 1336.89 222.51 1335.59 221.895C1315.62 213.022 1305.39 201.601 1303.34 185.992C1300.75 166.663 1314.97 153.507 1325.81 151.879C1335.69 150.345 1342.93 159.728 1347.23 165.294L1347.38 165.446C1350.47 169.521 1353.12 174.317 1355.86 179.416C1364.5 195.376 1373.44 211.899 1399 207.565C1411.08 205.572 1424.66 198.997 1440.44 187.623V186.759C1424.56 198.281 1410.98 204.911 1398.9 206.901C1373.79 211.132 1364.95 194.814 1356.42 179.102ZM1423.86 269.574C1409.08 286.202 1401.2 310.783 1402.2 337.097C1403.2 362.444 1412.48 385.595 1427.06 399.11C1431.07 402.091 1435.61 404.272 1440.44 405.533V404.875C1435.79 403.592 1431.41 401.484 1427.51 398.651C1413.03 385.185 1403.85 362.189 1402.85 337.097C1401.85 310.986 1409.69 286.505 1424.32 269.984C1429.15 264.692 1434.56 259.953 1440.44 255.856V255.041C1434.34 259.187 1428.77 264.068 1423.86 269.574ZM824.013 265.139C824.661 269.676 826.707 275.134 828.405 279.469C842.484 315.267 875.535 352.804 899.548 374.018C916.025 388.557 929.705 397.069 940.19 399.215C942.568 399.735 944.996 399.99 947.43 399.977C976.086 399.977 1011.28 370.195 1013.48 344.084C1013.35 342.787 1013.1 341.505 1012.73 340.257C1012.33 338.319 1011.83 336.382 1012.03 334.293V334.189L1011.98 334.141C1002.16 310.432 990.643 287.459 977.531 265.396C971.843 255.809 966.1 246.629 958.559 238.926C940.339 220.313 908.586 207.258 881.527 207.258C866.551 207.258 854.017 211.133 844.284 218.627C828.006 231.228 821.165 246.884 824.013 265.139ZM881.527 207.967C908.438 207.967 939.941 220.923 958.063 239.435C965.551 247.034 971.294 256.214 976.984 265.698C990.039 287.722 1001.52 310.644 1011.33 334.292C1011.26 336.362 1011.53 338.431 1012.13 340.412C1012.45 341.621 1012.7 342.848 1012.88 344.085C1010.63 369.888 975.787 399.262 947.429 399.262C945.032 399.281 942.639 399.059 940.287 398.599C929.904 396.406 916.325 387.993 899.951 373.512C876.036 352.295 843.086 314.914 829.053 279.215C827.356 274.933 825.309 269.528 824.61 265.037C821.865 247.035 828.654 231.584 844.733 219.191C854.319 211.796 866.701 207.969 881.527 207.969V207.967ZM886.67 322.459C901.097 335.921 918.274 345.666 931.602 347.806C933.973 348.246 936.379 348.468 938.79 348.469C947.077 348.469 953.718 345.817 958.61 340.615C964.351 334.547 967.199 325.012 966.746 313.789C960.903 288.138 955.014 267.28 937.341 252.59C926.206 243.206 909.033 237.138 893.758 237.138C875.384 237.138 862.654 245.76 858.856 260.701C857.762 265.139 857.961 271.563 858.61 276.001C860.806 290.891 871.042 307.827 886.67 322.459ZM859.559 260.905C863.255 246.22 875.683 237.854 893.759 237.854C908.932 237.854 925.86 243.87 936.943 253.103C954.417 267.688 960.255 288.394 966.099 313.894C966.548 324.855 963.701 334.188 958.113 340.208C953.42 345.207 946.876 347.755 938.789 347.755C936.413 347.741 934.041 347.537 931.698 347.144C904.04 342.607 863.954 307.262 859.21 275.898C858.613 271.564 858.414 265.24 859.559 260.906V260.905ZM195.509 890.115C179.381 882.109 160.409 881.294 144.684 887.874C136.996 891.111 130.236 896.212 125.014 902.716H125.813C130.873 896.459 137.431 891.582 144.878 888.538C160.459 881.957 179.28 882.773 195.206 890.678C200.398 893.227 205.294 897.259 209.988 902.716H210.881C206.035 896.898 200.894 892.767 195.509 890.115ZM767.399 862.119C761.106 857.582 755.114 852.734 749.327 848.097C735.299 836.874 722.068 826.367 707.486 821.37C691.166 813.062 675.557 808.898 660.658 808.878C648.369 808.852 636.257 811.809 625.363 817.495C592.51 834.375 573.991 871.244 566.899 902.716H567.598C574.69 871.502 593.006 834.833 625.658 818.104C650.074 805.561 677.534 806.887 707.234 821.985C721.766 826.93 734.946 837.484 748.928 848.706C754.716 853.297 760.707 858.091 767.046 862.681C773.84 867.627 780.88 872.42 787.715 877.011C800.097 885.425 812.232 893.634 822.914 902.716H824.013C813.128 893.378 800.747 885.018 788.068 876.448C781.228 871.811 774.188 867.067 767.399 862.119ZM531.446 849.319C527.004 838.305 517.219 832.948 501.545 832.948C493.61 832.948 485.374 834.326 478.728 835.449H478.534C476.999 835.702 475.445 835.821 473.89 835.804C467.647 835.804 461.254 833.919 455.119 832.081C451.973 831.114 448.625 830.143 445.428 829.48C442.829 828.869 440.287 828.41 437.738 827.851C427.212 825.757 416.275 823.563 406.39 818.926C402.494 817.088 398.505 815.302 394.61 813.62C375.336 805.103 355.414 796.283 342.49 779.144C341.683 778.073 340.992 777.002 340.236 775.932C331.207 762.265 323.359 747.58 315.878 733.35C307.382 717.287 298.606 700.811 288.014 685.719C277.783 670.982 264.002 654.71 250.675 638.954C246.024 633.444 241.69 628.243 237.442 623.141C216.274 597.543 196.308 573.421 159.458 573.421H159.408C149.969 573.421 139.99 574.951 128.757 578.012C96.8542 586.779 40.536 608.713 21.2688 656.24C16.1711 668.836 12.7799 686.434 9.17993 704.994C6.43677 719.021 3.59277 733.554 -0.00732422 745.638V747.935C3.94556 735.392 6.94067 719.986 9.78467 705.15C13.4279 686.534 16.8191 669.039 21.8663 656.495C41.0399 609.172 97.1495 587.443 128.902 578.675C140.09 575.562 150.077 574.084 159.408 574.084H159.458C195.955 574.084 215.878 598.101 236.894 623.601C241.135 628.703 245.534 633.905 250.171 639.362C263.455 655.116 277.236 671.436 287.517 686.074C298.001 701.119 306.785 717.694 315.274 733.653C322.812 747.883 330.653 762.62 339.689 776.292C340.387 777.363 341.186 778.532 341.985 779.556C355.018 796.789 374.983 805.667 394.308 814.231C398.254 815.965 402.242 817.751 406.087 819.537C416.074 824.227 427.01 826.42 437.594 828.561C440.186 829.073 442.735 829.584 445.284 830.145C448.423 830.861 451.721 831.826 454.918 832.746C461.109 834.584 467.496 836.522 473.89 836.522C475.475 836.511 477.058 836.39 478.627 836.161L478.93 836.115C485.467 834.992 493.661 833.666 501.545 833.666C516.874 833.666 526.507 838.868 530.806 849.526C535.291 860.493 533.794 879.105 532.454 895.576C532.253 898.077 532.051 900.422 531.9 902.72H532.598C532.75 900.422 532.901 898.077 533.102 895.628C534.442 879.101 535.896 860.385 531.446 849.319ZM255.319 881.806C235.498 854.371 200.297 838.05 161.208 838.05C151.773 838.02 142.364 839.029 133.15 841.057C98.3951 848.911 87.2711 873.132 82.3247 902.716H82.9728C84.5208 893.331 86.6736 884.558 90.0144 876.648C98.0496 857.676 111.83 846.563 133.25 841.717C142.431 839.691 151.807 838.683 161.208 838.709C200.095 838.709 235.044 854.976 254.765 882.21C256.961 888.022 258.811 895.062 260.611 902.713H261.31C259.748 895.646 257.764 888.68 255.37 881.85L255.319 881.806ZM444.83 867.471C427.154 864.871 410.285 859.518 394.056 854.317C383.573 850.948 372.694 847.481 361.656 844.781C354.622 843.047 347.58 841.669 341.338 840.702C335.806 839.799 330.216 839.303 324.612 839.219C314.928 839.219 309.185 841.259 307.382 845.34C302.45 856.202 298.649 879.817 298.447 902.716H299.095C299.297 879.916 303.098 856.457 307.937 845.595C309.636 841.82 315.274 839.935 324.612 839.935C330.181 840.002 335.738 840.478 341.237 841.361C347.479 842.332 354.463 843.71 361.505 845.444C372.535 848.144 383.321 851.612 393.811 854.98C410.134 860.181 427.01 865.586 444.78 868.186C462.254 870.735 476.186 882.976 484.373 902.716H485.122C476.834 882.569 462.65 870.124 444.83 867.471ZM55.4615 885.07C56.3616 859.977 57.1608 838.253 73.4832 825.454C90.4608 812.038 120.118 808.215 141.79 805.458C143.935 805.155 146.081 804.847 148.075 804.594C151.932 804.078 155.819 803.823 159.71 803.831C181.778 803.831 205.294 811.43 228.06 818.725C248.422 825.201 269.438 831.984 289.116 833.154H289.166L289.217 833.101C300.449 829.837 303.242 817.602 302.148 807.25C298.951 766.809 285.019 733.711 253.915 692.97C247.68 684.808 241.783 676.495 236.146 668.437C226.454 654.875 217.375 641.971 206.741 629.835C190.814 611.525 170.842 602.345 147.326 602.345C120.067 602.345 89.4167 615.296 63.2015 637.99C36.1943 667.874 32.1479 707.449 30.3047 745.441C30.1536 748.402 30.1031 751.462 30.0023 754.773C29.5991 770.021 29.1599 789.046 21.8159 798.43C15.3719 806.692 7.79028 813.068 -0.00732422 818.676V819.491C7.98474 813.778 15.7247 807.355 22.3632 798.785C29.8008 789.302 30.2544 770.178 30.7008 754.825C30.8015 751.513 30.8519 748.402 31.0032 745.493C32.796 707.653 36.8423 668.131 63.6984 638.449C89.7623 615.91 120.218 602.953 147.326 602.953C170.64 602.953 190.512 612.187 206.237 630.239C216.828 642.428 225.965 655.227 235.591 668.894C241.236 676.9 247.126 685.161 253.368 693.377C284.371 734.021 298.303 767.067 301.442 807.356C302.544 817.351 299.901 829.284 289.066 832.449C269.546 831.273 248.573 824.595 228.254 818.067C205.438 810.772 181.879 803.173 159.71 803.173C155.786 803.192 151.867 803.448 147.974 803.941C145.98 804.244 143.834 804.5 141.682 804.756C119.966 807.56 90.1655 811.435 73.1375 824.898C56.5127 837.953 55.7136 859.729 54.7632 885.078C54.5687 890.326 54.4175 895.783 54.0719 901.24C53.9907 901.731 53.9379 902.226 53.9136 902.724H54.6191C54.6191 902.212 54.6696 901.805 54.6696 901.293C55.0656 895.775 55.2672 890.37 55.4615 885.07ZM16.0199 896.951C15.2783 887.518 7.79028 879.154 -0.00732422 879.154V879.868C7.48792 879.868 14.6304 887.874 15.3215 897.002C15.5214 898.901 15.5382 900.814 15.3719 902.716H16.0199C16.1963 900.798 16.1963 898.869 16.0199 896.951ZM109.137 770.678C113.733 770.651 118.315 770.173 122.818 769.252C132.998 767.211 143.885 763.947 155.47 760.479C168.394 756.605 181.879 752.526 194.659 750.281C206.489 748.087 211.63 742.734 210.283 733.81V733.757C206.143 724.833 202.946 714.891 199.548 704.383C192.262 681.432 184.666 657.72 166.248 645.377C157.565 639.616 146.974 636.557 135.648 636.557C117.223 636.557 98.3951 644.412 85.1183 657.618C74.2391 668.533 66.2975 686.278 63.8567 705.098C61.2574 724.937 65.1527 743.753 74.5847 756.709C80.8776 765.326 94.1543 770.678 109.137 770.678ZM85.6151 658.127C98.7479 645.021 117.475 637.218 135.648 637.218C146.88 637.218 157.313 640.226 165.902 645.986C184.176 658.174 191.664 681.736 199.001 704.583C202.342 715.09 205.495 725.034 209.635 733.958C210.881 742.527 206.143 747.526 194.558 749.562C181.778 751.912 168.25 755.886 155.218 759.813C143.734 763.281 132.797 766.545 122.71 768.586C118.241 769.487 113.696 769.949 109.137 769.965C94.356 769.965 81.3312 764.709 75.1392 756.247C54.6191 728.201 64.1016 679.598 85.6151 658.13V658.127ZM873.943 466.985C870.548 460.405 867.051 453.621 864.158 446.89C861.561 441.129 858.964 435.062 856.418 429.145C840.892 393.092 824.864 355.758 801.501 325.825C792.564 314.351 781.731 303.385 771.297 292.674C761.262 282.527 751.825 272.992 744.283 263.299C740.7 258.659 737.399 253.807 734.4 248.769C727.959 238.571 721.872 228.93 711.729 222.303L711.635 222.251L708.733 222.455C669.997 224.8 636.496 226.842 600.798 233.468C575.44 238.163 557.461 243.207 547.525 248.414C527.005 259.172 521.418 278.4 515.428 298.798C514.78 300.886 514.132 303.033 513.534 305.174C504.844 334.037 492.258 363.312 459.664 381.616L459.563 381.772C459.311 382.076 459.059 382.384 458.764 382.686C452.017 386.31 445.285 389.982 438.496 393.653C426.709 399.977 414.527 406.609 402.496 412.928C397.305 415.685 392.157 418.545 387.066 421.242C379.182 425.577 370.996 430.015 362.91 434.146C357.316 436.898 352.369 440.726 347.481 444.397C346.278 445.316 345.033 446.282 343.83 447.201C339.337 450.57 334.348 453.985 328.66 456.225C317.975 460.513 306.138 461.019 294.762 461.583C284.869 461.99 274.689 462.502 265.105 465.359C255.969 468.059 249.625 470.456 244.333 478.414C227.212 503.906 235.895 522.988 249.928 547.106C264.702 572.403 282.673 592.138 303.395 605.705C307.119 608.051 311.004 610.13 315.023 611.924C319.372 614.013 323.814 616.154 327.803 619.011C332.454 622.274 336.947 625.847 341.289 629.314C344.838 632.118 348.431 635.027 352.117 637.779C367.151 648.845 385.122 661.138 405.297 668.376C411.978 670.773 419.92 671.232 425.413 671.232C430.872 671.25 436.32 670.755 441.685 669.755C447.928 668.53 452.968 665.729 458.31 662.72C460.557 661.441 462.954 660.115 465.402 658.893C468.095 657.668 470.896 656.699 473.589 655.733C477.179 654.598 480.655 653.13 483.971 651.347C492.165 646.756 500.099 641.398 507.738 636.197C515.125 631.199 522.765 626.051 530.605 621.564C567.649 600.294 599.401 588.31 630.304 583.725C639.511 582.344 648.807 581.644 658.117 581.631C669.577 581.619 681.011 582.695 692.267 584.842C700.95 586.477 709.885 589.025 718.576 591.526C733.801 595.861 749.475 600.344 764.856 600.344C772.825 600.455 780.747 599.09 788.219 596.318C802.896 590.808 815.979 579.382 829.859 567.245C836.945 561.078 844.235 554.702 852.175 548.634C853.969 547.307 856.218 545.725 858.764 543.939C864.403 539.861 871.443 534.866 877.484 529.661C888.716 519.818 891.812 510.841 888.118 498.553C885.024 488.457 879.681 478 873.94 466.988L873.943 466.985ZM877.087 529.103C871.044 534.351 864.055 539.302 858.367 543.381C855.821 545.167 853.623 546.743 851.823 548.122C843.838 554.138 836.497 560.566 829.41 566.739C815.628 578.823 802.601 590.197 788.021 595.701C780.604 598.424 772.758 599.79 764.857 599.734C749.576 599.734 733.953 595.248 718.773 590.862C710.04 588.361 701.104 585.812 692.363 584.13C681.071 582.021 669.608 580.962 658.12 580.966C648.793 580.954 639.477 581.654 630.256 583.06C599.159 587.65 567.4 599.734 530.255 620.999C522.422 625.49 514.783 630.692 507.345 635.636C499.749 640.838 491.764 646.143 483.679 650.734C480.385 652.482 476.942 653.933 473.39 655.068C470.584 655.991 467.836 657.081 465.16 658.332C462.655 659.502 460.264 660.881 458.018 662.103C452.675 665.064 447.686 667.921 441.588 669.088C436.257 670.104 430.843 670.617 425.416 670.618C419.973 670.618 412.14 670.059 405.494 667.715C385.478 660.524 367.449 648.23 352.523 637.164C348.88 634.46 345.187 631.603 341.688 628.752C337.296 625.331 332.803 621.767 328.209 618.448C324.098 615.724 319.774 613.336 315.278 611.309C311.306 609.533 307.467 607.47 303.794 605.137C283.13 591.57 265.202 571.94 250.528 546.795C236.596 522.826 228.014 503.905 244.883 478.766C250.075 470.964 256.317 468.666 265.252 466.013C274.785 463.109 284.98 462.7 294.765 462.191C306.242 461.731 318.071 461.172 328.958 456.838C334.646 454.592 339.643 451.125 344.186 447.756C345.489 446.842 346.684 445.871 347.88 444.952C352.725 441.28 357.715 437.458 363.158 434.701C371.344 430.622 379.487 426.189 387.371 421.901C392.411 419.15 397.66 416.241 402.844 413.541C414.883 407.164 427.065 400.637 438.794 394.26C445.583 390.537 452.323 386.866 459.112 383.247L459.213 383.195C459.523 382.897 459.807 382.574 460.063 382.229C492.815 363.716 505.394 334.343 514.135 305.374C514.783 303.233 515.431 301.086 516.028 298.997C521.968 278.751 527.613 259.628 547.831 249.074C557.767 243.817 575.587 238.77 600.902 234.128C636.549 227.503 670.051 225.459 708.787 223.115L711.436 222.963C721.423 229.491 727.461 238.974 733.851 249.121C736.879 254.159 740.179 259.028 743.738 263.706C751.376 273.399 760.813 283.034 770.797 293.133C781.232 303.844 792.116 314.858 800.95 326.283C824.268 356.167 840.341 393.446 855.821 429.401C858.367 435.318 860.964 441.386 863.51 447.146C866.506 453.878 869.998 460.714 873.392 467.293C879.032 478.36 884.376 488.657 887.467 498.81C891.061 510.744 888.116 519.518 877.084 529.105L877.087 529.103ZM814.879 420.733L813.583 415.682C800.051 364.278 779.98 333.781 739.44 303.44L738.495 302.673C716.674 286.353 697.803 272.175 676.837 265.396C666.346 261.924 653.516 260.14 639.793 260.14H639.742C621.519 260.14 602.943 263.403 590.113 268.808C556.215 283.138 543.788 313.432 529.51 348.619C510.733 394.668 477.829 454.237 427.954 476.572C418.925 480.598 410.185 481.419 400.947 482.286C397.405 482.588 393.711 482.996 389.967 483.51C375.833 485.551 360.058 488.507 341.641 492.583C339.042 493.095 336.442 493.706 333.85 494.317C320.365 497.377 302.545 506.051 296.705 520.328C292.364 530.882 293.012 540.523 298.448 548.935C314.727 573.929 370.793 582.492 393.812 582.545H394.258C404.446 582.545 414.879 581.474 424.959 580.404C430.697 579.793 436.594 579.13 442.282 578.77C451.973 578.059 459.865 575.25 469.599 569.03C479.629 562.607 490.414 559.547 503.446 559.547C513.181 559.547 523.066 561.176 533.499 562.859C536.645 563.423 539.943 563.929 543.233 564.443C556.913 566.486 571.544 567.405 589.414 567.405C600.495 567.405 611.684 567.044 622.462 566.689C633.198 566.381 644.235 566.026 655.114 566.026C674.936 566.026 690.913 567.25 705.594 569.849C709.885 570.669 714.529 571.786 719.468 572.961C730.052 575.562 742.037 578.517 754.067 578.517C760.219 578.596 766.348 577.736 772.241 575.969C800.052 567.405 823.314 532.672 827.609 505.543C829.209 495.39 828.959 484.989 826.909 472.8C823.711 454.241 819.422 437.969 814.877 420.735L814.879 420.733ZM826.906 505.435C822.663 532.367 799.648 566.787 772.092 575.302C766.242 577.037 760.168 577.898 754.066 577.857C742.087 577.857 730.156 574.948 719.618 572.347C714.73 571.119 710.035 570.003 705.694 569.179C691.013 566.531 674.986 565.356 655.114 565.356C644.234 565.356 633.197 565.664 622.462 566.019C611.683 566.375 600.494 566.735 589.414 566.735C571.644 566.735 556.963 565.763 543.334 563.774C540.036 563.215 536.746 562.703 533.599 562.19C523.116 560.508 513.23 558.925 503.446 558.925C490.313 558.925 479.383 561.939 469.195 568.414C459.562 574.587 451.771 577.339 442.231 578.054C436.543 578.508 430.654 579.073 424.915 579.684C414.878 580.754 404.395 581.824 394.258 581.824H393.811C370.894 581.773 315.18 573.307 299.045 548.575C293.709 540.366 293.105 530.933 297.353 520.527C303.098 506.5 320.666 497.988 333.994 494.928C336.542 494.364 339.142 493.805 341.734 493.194C360.158 489.162 375.934 486.209 390.06 484.165C393.761 483.653 397.454 483.301 400.997 482.99C410.285 482.076 419.119 481.256 428.206 477.178C478.332 454.79 511.279 395.075 530.158 348.869C544.385 313.885 556.711 283.644 590.364 269.466C603.144 264.061 621.562 260.844 639.742 260.844H639.792C653.472 260.844 666.202 262.63 676.634 265.998C697.5 272.73 716.278 286.856 738.141 303.227L739.091 303.99C779.428 334.234 799.448 364.577 812.93 415.827L814.226 420.877C818.816 438.116 823.111 454.434 826.209 472.896C828.307 485.041 828.504 495.391 826.906 505.435ZM1047.83 837.13C1046.68 827.543 1045.23 809.745 1048.47 797.813C1053.87 778.125 1069.45 761.194 1084.47 744.771C1105.74 721.673 1127.71 697.749 1120.97 665.777C1117.32 648.543 1108.24 637.833 1093.01 632.986C1079.83 628.757 1063.6 629.314 1045.33 630.334C1011.98 632.224 989.366 626.611 976.232 621.514C962.955 616.312 950.772 607.743 938.892 599.382C923.013 588.212 907.988 577.605 891.012 575.259C884.763 574.31 878.39 574.571 872.239 576.026C856.36 579.598 844.375 587.755 831.698 596.424C810.13 611.062 787.865 626.258 744.63 617.438C735.142 615.547 725.71 612.644 715.72 609.631C683.867 599.996 650.92 590.1 614.077 610.044C580.777 627.125 559.804 658.489 539.586 688.836C530.154 702.962 520.369 717.646 509.584 730.498C495.752 746.921 476.924 769.409 453.812 761.606C444.532 758.546 434.948 757.016 425.653 755.538C410.929 753.141 395.752 750.692 382.072 741.924C372.287 735.647 364.698 726.722 357.311 718.054C353.862 714.027 350.269 709.844 346.525 705.97C338.238 697.452 331.549 687.405 325.055 677.717C319.511 669.456 313.823 660.986 307.134 653.388C298.148 645.283 290.264 638.193 281.077 629.726C269.989 619.375 259.851 607.082 250.067 595.254C231.303 572.455 213.628 550.986 190.508 544.051C174.186 539.105 157.309 539.769 135.788 546.093C124.312 549.508 109.134 556.088 98.4491 561.086C75.8268 571.676 54.0311 583.949 33.246 597.803C18.3048 607.94 6.72583 622.304 -0.0108643 639.058V640.843C6.55737 623.591 18.2738 608.778 33.5483 598.413C54.339 584.573 76.1312 572.3 98.7444 561.696C109.379 556.751 124.506 550.119 135.94 546.751C157.41 540.479 174.135 539.815 190.307 544.662C213.224 551.545 230.85 572.967 249.57 595.663C259.355 607.491 269.492 619.835 280.674 630.186C289.861 638.703 297.702 645.842 306.688 653.9C313.326 661.399 318.964 669.911 324.508 678.126C330.995 687.812 337.792 697.856 346.028 706.43C349.823 710.305 353.365 714.488 356.807 718.566C364.201 727.235 371.84 736.209 381.719 742.484C395.507 751.356 410.778 753.806 425.56 756.15C434.84 757.68 444.431 759.21 453.568 762.271C477.126 770.178 496.199 747.534 510.08 730.959C520.916 718.002 530.651 703.417 540.133 689.244C560.358 658.898 581.224 627.586 614.322 610.656C650.97 590.817 683.816 600.713 715.568 610.296C725.556 613.308 734.993 616.16 744.528 618.103C787.968 626.915 810.384 611.721 832.049 596.984C844.682 588.362 856.614 580.252 872.441 576.685C878.496 575.267 884.766 575.024 890.912 575.969C907.688 578.215 922.716 588.769 938.539 599.992C950.374 608.305 962.705 616.974 976.033 622.176C989.166 627.273 1011.88 632.933 1045.38 631.048C1076.68 629.262 1112.23 627.225 1120.37 665.932C1126.96 697.544 1105.14 721.365 1084.02 744.364C1068.89 760.839 1053.27 777.822 1047.88 797.656C1044.73 809.03 1045.73 825.451 1047.13 837.229C1049.43 856.154 1054.86 875.581 1060.66 896.084C1061.26 898.277 1061.86 900.47 1062.5 902.716H1063.2C1062.56 900.418 1061.91 898.173 1061.26 895.88C1055.51 875.377 1050.02 856.05 1047.83 837.13Z" fill="black" fill-opacity="0.3"/>
</g>
<defs>
<clipPath id="clip0">
<rect width="1440" height="903" fill="white" transform="translate(1440 903) rotate(-180)"/>
</clipPath>
</defs>
</svg>
